<mxfile host="65bd71144e">
    <diagram id="HzERU_r6Tv0RshMhqvjA" name="Page-1">
        <mxGraphModel dx="-113" dy="2474" grid="1" gridSize="10" guides="1" tooltips="1" connect="1" arrows="1" fold="1" page="1" pageScale="1" pageWidth="1100" pageHeight="850" math="0" shadow="0">
            <root>
                <mxCell id="0"/>
                <mxCell id="1" parent="0"/>
                <mxCell id="KvnPRHnvs-KlqR3MAuo1-1" value="" style="group" parent="1" vertex="1" connectable="0">
                    <mxGeometry x="1290" y="-850" width="2517.5" height="1462.5" as="geometry"/>
                </mxCell>
                <mxCell id="KvnPRHnvs-KlqR3MAuo1-2" value="" style="rounded=1;whiteSpace=wrap;html=1;fillColor=#67AB9F;opacity=40;strokeColor=#000000;glass=0;strokeWidth=3;" parent="KvnPRHnvs-KlqR3MAuo1-1" vertex="1">
                    <mxGeometry x="295" y="275" width="1950" height="1165" as="geometry"/>
                </mxCell>
                <mxCell id="KvnPRHnvs-KlqR3MAuo1-3" value="" style="rounded=1;whiteSpace=wrap;html=1;fillColor=#E6D0DE;opacity=40;strokeColor=#000000;glass=0;strokeWidth=3;" parent="KvnPRHnvs-KlqR3MAuo1-1" vertex="1">
                    <mxGeometry y="430" width="2120" height="725" as="geometry"/>
                </mxCell>
                <mxCell id="KvnPRHnvs-KlqR3MAuo1-4" value="" style="rounded=1;whiteSpace=wrap;html=1;fillColor=#d5e8d4;opacity=40;strokeColor=#000000;glass=0;strokeWidth=3;" parent="KvnPRHnvs-KlqR3MAuo1-1" vertex="1">
                    <mxGeometry x="305" width="1930" height="275" as="geometry"/>
                </mxCell>
                <mxCell id="KvnPRHnvs-KlqR3MAuo1-5" style="edgeStyle=orthogonalEdgeStyle;rounded=0;jumpStyle=none;jumpSize=6;orthogonalLoop=1;jettySize=auto;html=1;fontSize=41;fontColor=#000000;startArrow=none;startFill=0;endArrow=classic;endFill=1;startSize=1;endSize=1;strokeColor=#000000;strokeWidth=7;" parent="KvnPRHnvs-KlqR3MAuo1-1" source="KvnPRHnvs-KlqR3MAuo1-6" edge="1">
                    <mxGeometry relative="1" as="geometry">
                        <mxPoint x="655" y="1190" as="targetPoint"/>
                    </mxGeometry>
                </mxCell>
                <mxCell id="KvnPRHnvs-KlqR3MAuo1-6" value="C0" style="whiteSpace=wrap;html=1;aspect=fixed;fillColor=#d5e8d4;strokeColor=#000000;strokeWidth=3;fontSize=33;fontStyle=1" parent="KvnPRHnvs-KlqR3MAuo1-1" vertex="1">
                    <mxGeometry x="585" y="90" width="140" height="140" as="geometry"/>
                </mxCell>
                <mxCell id="KvnPRHnvs-KlqR3MAuo1-7" style="edgeStyle=orthogonalEdgeStyle;rounded=0;jumpStyle=none;jumpSize=6;orthogonalLoop=1;jettySize=auto;html=1;fontSize=41;fontColor=#000000;startArrow=none;startFill=0;endArrow=classic;endFill=1;startSize=1;endSize=1;strokeColor=#000000;strokeWidth=7;" parent="KvnPRHnvs-KlqR3MAuo1-1" source="KvnPRHnvs-KlqR3MAuo1-8" edge="1">
                    <mxGeometry relative="1" as="geometry">
                        <mxPoint x="852" y="1200" as="targetPoint"/>
                    </mxGeometry>
                </mxCell>
                <mxCell id="KvnPRHnvs-KlqR3MAuo1-8" value="C1" style="whiteSpace=wrap;html=1;aspect=fixed;fillColor=#d5e8d4;strokeColor=#000000;strokeWidth=3;fontSize=33;fontStyle=1" parent="KvnPRHnvs-KlqR3MAuo1-1" vertex="1">
                    <mxGeometry x="782" y="90" width="140" height="140" as="geometry"/>
                </mxCell>
                <mxCell id="KvnPRHnvs-KlqR3MAuo1-9" style="edgeStyle=orthogonalEdgeStyle;rounded=0;jumpStyle=none;jumpSize=6;orthogonalLoop=1;jettySize=auto;html=1;fontSize=41;fontColor=#000000;startArrow=none;startFill=0;endArrow=classic;endFill=1;startSize=1;endSize=1;strokeColor=#000000;strokeWidth=7;" parent="KvnPRHnvs-KlqR3MAuo1-1" source="KvnPRHnvs-KlqR3MAuo1-10" edge="1">
                    <mxGeometry relative="1" as="geometry">
                        <mxPoint x="1045" y="1200" as="targetPoint"/>
                    </mxGeometry>
                </mxCell>
                <mxCell id="KvnPRHnvs-KlqR3MAuo1-10" value="C2" style="whiteSpace=wrap;html=1;aspect=fixed;fillColor=#d5e8d4;strokeColor=#000000;strokeWidth=3;fontSize=33;fontStyle=1" parent="KvnPRHnvs-KlqR3MAuo1-1" vertex="1">
                    <mxGeometry x="974.5999999999999" y="90" width="140" height="140" as="geometry"/>
                </mxCell>
                <mxCell id="KvnPRHnvs-KlqR3MAuo1-11" style="edgeStyle=orthogonalEdgeStyle;rounded=0;jumpStyle=none;jumpSize=6;orthogonalLoop=1;jettySize=auto;html=1;fontSize=41;fontColor=#000000;startArrow=none;startFill=0;endArrow=classic;endFill=1;startSize=1;endSize=1;strokeColor=#000000;strokeWidth=7;" parent="KvnPRHnvs-KlqR3MAuo1-1" source="KvnPRHnvs-KlqR3MAuo1-12" edge="1">
                    <mxGeometry relative="1" as="geometry">
                        <mxPoint x="1235" y="1200" as="targetPoint"/>
                    </mxGeometry>
                </mxCell>
                <mxCell id="KvnPRHnvs-KlqR3MAuo1-12" value="C3" style="whiteSpace=wrap;html=1;aspect=fixed;fillColor=#d5e8d4;strokeColor=#000000;strokeWidth=3;fontSize=33;fontStyle=1" parent="KvnPRHnvs-KlqR3MAuo1-1" vertex="1">
                    <mxGeometry x="1165" y="90" width="140" height="140" as="geometry"/>
                </mxCell>
                <mxCell id="KvnPRHnvs-KlqR3MAuo1-13" style="edgeStyle=orthogonalEdgeStyle;rounded=0;jumpStyle=none;jumpSize=6;orthogonalLoop=1;jettySize=auto;html=1;fontSize=41;fontColor=#000000;startArrow=none;startFill=0;endArrow=classic;endFill=1;startSize=1;endSize=1;strokeColor=#000000;strokeWidth=7;" parent="KvnPRHnvs-KlqR3MAuo1-1" source="KvnPRHnvs-KlqR3MAuo1-14" edge="1">
                    <mxGeometry relative="1" as="geometry">
                        <mxPoint x="1432" y="1210" as="targetPoint"/>
                    </mxGeometry>
                </mxCell>
                <mxCell id="KvnPRHnvs-KlqR3MAuo1-14" value="C4" style="whiteSpace=wrap;html=1;aspect=fixed;fillColor=#d5e8d4;strokeColor=#000000;strokeWidth=3;fontSize=33;fontStyle=1" parent="KvnPRHnvs-KlqR3MAuo1-1" vertex="1">
                    <mxGeometry x="1362" y="90" width="140" height="140" as="geometry"/>
                </mxCell>
                <mxCell id="KvnPRHnvs-KlqR3MAuo1-15" style="edgeStyle=orthogonalEdgeStyle;rounded=0;jumpStyle=none;jumpSize=6;orthogonalLoop=1;jettySize=auto;html=1;fontSize=41;fontColor=#000000;startArrow=none;startFill=0;endArrow=classic;endFill=1;startSize=1;endSize=1;strokeColor=#000000;strokeWidth=7;" parent="KvnPRHnvs-KlqR3MAuo1-1" source="KvnPRHnvs-KlqR3MAuo1-16" edge="1">
                    <mxGeometry relative="1" as="geometry">
                        <mxPoint x="1625" y="1210" as="targetPoint"/>
                    </mxGeometry>
                </mxCell>
                <mxCell id="KvnPRHnvs-KlqR3MAuo1-16" value="C5" style="whiteSpace=wrap;html=1;aspect=fixed;fillColor=#d5e8d4;strokeColor=#000000;strokeWidth=3;fontSize=33;fontStyle=1" parent="KvnPRHnvs-KlqR3MAuo1-1" vertex="1">
                    <mxGeometry x="1554.6" y="90" width="140" height="140" as="geometry"/>
                </mxCell>
                <mxCell id="KvnPRHnvs-KlqR3MAuo1-17" value="" style="endArrow=none;dashed=1;html=1;rounded=0;strokeWidth=10;jumpStyle=arc;strokeColor=#000000;" parent="KvnPRHnvs-KlqR3MAuo1-1" edge="1">
                    <mxGeometry width="50" height="50" relative="1" as="geometry">
                        <mxPoint x="1735" y="159.50000000000068" as="sourcePoint"/>
                        <mxPoint x="2055" y="160" as="targetPoint"/>
                    </mxGeometry>
                </mxCell>
                <mxCell id="KvnPRHnvs-KlqR3MAuo1-18" value="" style="ellipse;whiteSpace=wrap;html=1;aspect=fixed;fillColor=#67AB9F;strokeWidth=3;strokeColor=#000000;" parent="KvnPRHnvs-KlqR3MAuo1-1" vertex="1">
                    <mxGeometry x="727" y="440" width="70" height="70" as="geometry"/>
                </mxCell>
                <mxCell id="KvnPRHnvs-KlqR3MAuo1-19" value="" style="endArrow=none;html=1;rounded=0;startSize=1;endSize=1;strokeColor=#000000;strokeWidth=7;jumpStyle=arc;jumpSize=6;exitX=0;exitY=0;exitDx=0;exitDy=0;entryX=1;entryY=1;entryDx=0;entryDy=0;" parent="KvnPRHnvs-KlqR3MAuo1-1" source="KvnPRHnvs-KlqR3MAuo1-18" target="KvnPRHnvs-KlqR3MAuo1-18" edge="1">
                    <mxGeometry width="50" height="50" relative="1" as="geometry">
                        <mxPoint x="797" y="460" as="sourcePoint"/>
                        <mxPoint x="847" y="410" as="targetPoint"/>
                    </mxGeometry>
                </mxCell>
                <mxCell id="KvnPRHnvs-KlqR3MAuo1-20" value="" style="endArrow=none;html=1;rounded=0;startSize=1;endSize=1;strokeColor=#000000;strokeWidth=7;jumpStyle=none;jumpSize=6;exitX=0;exitY=1;exitDx=0;exitDy=0;entryX=1;entryY=0;entryDx=0;entryDy=0;" parent="KvnPRHnvs-KlqR3MAuo1-1" source="KvnPRHnvs-KlqR3MAuo1-18" target="KvnPRHnvs-KlqR3MAuo1-18" edge="1">
                    <mxGeometry width="50" height="50" relative="1" as="geometry">
                        <mxPoint x="747.2512626584744" y="460.2512626584743" as="sourcePoint"/>
                        <mxPoint x="796.7487373415256" y="509.7487373415254" as="targetPoint"/>
                    </mxGeometry>
                </mxCell>
                <mxCell id="KvnPRHnvs-KlqR3MAuo1-21" value="" style="ellipse;whiteSpace=wrap;html=1;aspect=fixed;fillColor=#67AB9F;strokeWidth=3;strokeColor=#000000;" parent="KvnPRHnvs-KlqR3MAuo1-1" vertex="1">
                    <mxGeometry x="727" y="570" width="70" height="70" as="geometry"/>
                </mxCell>
                <mxCell id="KvnPRHnvs-KlqR3MAuo1-22" value="" style="endArrow=none;html=1;rounded=0;startSize=1;endSize=1;strokeColor=#000000;strokeWidth=7;jumpStyle=arc;jumpSize=6;exitX=0;exitY=0;exitDx=0;exitDy=0;entryX=1;entryY=1;entryDx=0;entryDy=0;" parent="KvnPRHnvs-KlqR3MAuo1-1" source="KvnPRHnvs-KlqR3MAuo1-21" target="KvnPRHnvs-KlqR3MAuo1-21" edge="1">
                    <mxGeometry width="50" height="50" relative="1" as="geometry">
                        <mxPoint x="797" y="590" as="sourcePoint"/>
                        <mxPoint x="847" y="540" as="targetPoint"/>
                    </mxGeometry>
                </mxCell>
                <mxCell id="KvnPRHnvs-KlqR3MAuo1-23" value="" style="endArrow=none;html=1;rounded=0;startSize=1;endSize=1;strokeColor=#000000;strokeWidth=7;jumpStyle=none;jumpSize=6;exitX=0;exitY=1;exitDx=0;exitDy=0;entryX=1;entryY=0;entryDx=0;entryDy=0;" parent="KvnPRHnvs-KlqR3MAuo1-1" source="KvnPRHnvs-KlqR3MAuo1-21" target="KvnPRHnvs-KlqR3MAuo1-21" edge="1">
                    <mxGeometry width="50" height="50" relative="1" as="geometry">
                        <mxPoint x="747.2512626584744" y="590.2512626584743" as="sourcePoint"/>
                        <mxPoint x="796.7487373415256" y="639.7487373415254" as="targetPoint"/>
                    </mxGeometry>
                </mxCell>
                <mxCell id="KvnPRHnvs-KlqR3MAuo1-24" value="" style="ellipse;whiteSpace=wrap;html=1;aspect=fixed;fillColor=#67AB9F;strokeWidth=3;strokeColor=#000000;" parent="KvnPRHnvs-KlqR3MAuo1-1" vertex="1">
                    <mxGeometry x="727" y="690" width="70" height="70" as="geometry"/>
                </mxCell>
                <mxCell id="KvnPRHnvs-KlqR3MAuo1-25" value="" style="endArrow=none;html=1;rounded=0;startSize=1;endSize=1;strokeColor=#000000;strokeWidth=7;jumpStyle=arc;jumpSize=6;exitX=0;exitY=0;exitDx=0;exitDy=0;entryX=1;entryY=1;entryDx=0;entryDy=0;" parent="KvnPRHnvs-KlqR3MAuo1-1" source="KvnPRHnvs-KlqR3MAuo1-24" target="KvnPRHnvs-KlqR3MAuo1-24" edge="1">
                    <mxGeometry width="50" height="50" relative="1" as="geometry">
                        <mxPoint x="797" y="710" as="sourcePoint"/>
                        <mxPoint x="847" y="660" as="targetPoint"/>
                    </mxGeometry>
                </mxCell>
                <mxCell id="KvnPRHnvs-KlqR3MAuo1-26" value="" style="endArrow=none;html=1;rounded=0;startSize=1;endSize=1;strokeColor=#000000;strokeWidth=7;jumpStyle=none;jumpSize=6;exitX=0;exitY=1;exitDx=0;exitDy=0;entryX=1;entryY=0;entryDx=0;entryDy=0;" parent="KvnPRHnvs-KlqR3MAuo1-1" source="KvnPRHnvs-KlqR3MAuo1-24" target="KvnPRHnvs-KlqR3MAuo1-24" edge="1">
                    <mxGeometry width="50" height="50" relative="1" as="geometry">
                        <mxPoint x="747.2512626584744" y="710.2512626584743" as="sourcePoint"/>
                        <mxPoint x="796.7487373415256" y="759.7487373415254" as="targetPoint"/>
                    </mxGeometry>
                </mxCell>
                <mxCell id="KvnPRHnvs-KlqR3MAuo1-27" value="" style="ellipse;whiteSpace=wrap;html=1;aspect=fixed;fillColor=#67AB9F;strokeWidth=3;strokeColor=#000000;" parent="KvnPRHnvs-KlqR3MAuo1-1" vertex="1">
                    <mxGeometry x="727" y="810" width="70" height="70" as="geometry"/>
                </mxCell>
                <mxCell id="KvnPRHnvs-KlqR3MAuo1-28" value="" style="endArrow=none;html=1;rounded=0;startSize=1;endSize=1;strokeColor=#000000;strokeWidth=7;jumpStyle=arc;jumpSize=6;exitX=0;exitY=0;exitDx=0;exitDy=0;entryX=1;entryY=1;entryDx=0;entryDy=0;" parent="KvnPRHnvs-KlqR3MAuo1-1" source="KvnPRHnvs-KlqR3MAuo1-27" target="KvnPRHnvs-KlqR3MAuo1-27" edge="1">
                    <mxGeometry width="50" height="50" relative="1" as="geometry">
                        <mxPoint x="797" y="830" as="sourcePoint"/>
                        <mxPoint x="847" y="780" as="targetPoint"/>
                    </mxGeometry>
                </mxCell>
                <mxCell id="KvnPRHnvs-KlqR3MAuo1-29" value="" style="endArrow=none;html=1;rounded=0;startSize=1;endSize=1;strokeColor=#000000;strokeWidth=7;jumpStyle=none;jumpSize=6;exitX=0;exitY=1;exitDx=0;exitDy=0;entryX=1;entryY=0;entryDx=0;entryDy=0;" parent="KvnPRHnvs-KlqR3MAuo1-1" source="KvnPRHnvs-KlqR3MAuo1-27" target="KvnPRHnvs-KlqR3MAuo1-27" edge="1">
                    <mxGeometry width="50" height="50" relative="1" as="geometry">
                        <mxPoint x="747.2512626584744" y="830.2512626584743" as="sourcePoint"/>
                        <mxPoint x="796.7487373415256" y="879.7487373415254" as="targetPoint"/>
                    </mxGeometry>
                </mxCell>
                <mxCell id="KvnPRHnvs-KlqR3MAuo1-30" value="" style="ellipse;whiteSpace=wrap;html=1;aspect=fixed;fillColor=#67AB9F;strokeWidth=3;strokeColor=#000000;" parent="KvnPRHnvs-KlqR3MAuo1-1" vertex="1">
                    <mxGeometry x="727" y="940" width="70" height="70" as="geometry"/>
                </mxCell>
                <mxCell id="KvnPRHnvs-KlqR3MAuo1-31" value="" style="endArrow=none;html=1;rounded=0;startSize=1;endSize=1;strokeColor=#000000;strokeWidth=7;jumpStyle=arc;jumpSize=6;exitX=0;exitY=0;exitDx=0;exitDy=0;entryX=1;entryY=1;entryDx=0;entryDy=0;" parent="KvnPRHnvs-KlqR3MAuo1-1" source="KvnPRHnvs-KlqR3MAuo1-30" target="KvnPRHnvs-KlqR3MAuo1-30" edge="1">
                    <mxGeometry width="50" height="50" relative="1" as="geometry">
                        <mxPoint x="797" y="960" as="sourcePoint"/>
                        <mxPoint x="847" y="910" as="targetPoint"/>
                    </mxGeometry>
                </mxCell>
                <mxCell id="KvnPRHnvs-KlqR3MAuo1-32" value="" style="endArrow=none;html=1;rounded=0;startSize=1;endSize=1;strokeColor=#000000;strokeWidth=7;jumpStyle=none;jumpSize=6;exitX=0;exitY=1;exitDx=0;exitDy=0;entryX=1;entryY=0;entryDx=0;entryDy=0;" parent="KvnPRHnvs-KlqR3MAuo1-1" source="KvnPRHnvs-KlqR3MAuo1-30" target="KvnPRHnvs-KlqR3MAuo1-30" edge="1">
                    <mxGeometry width="50" height="50" relative="1" as="geometry">
                        <mxPoint x="747.2512626584744" y="960.2512626584743" as="sourcePoint"/>
                        <mxPoint x="796.7487373415256" y="1009.7487373415254" as="targetPoint"/>
                    </mxGeometry>
                </mxCell>
                <mxCell id="KvnPRHnvs-KlqR3MAuo1-33" value="" style="ellipse;whiteSpace=wrap;html=1;aspect=fixed;fillColor=#67AB9F;strokeWidth=3;strokeColor=#000000;" parent="KvnPRHnvs-KlqR3MAuo1-1" vertex="1">
                    <mxGeometry x="727" y="1060" width="70" height="70" as="geometry"/>
                </mxCell>
                <mxCell id="KvnPRHnvs-KlqR3MAuo1-34" value="" style="endArrow=none;html=1;rounded=0;startSize=1;endSize=1;strokeColor=#000000;strokeWidth=7;jumpStyle=arc;jumpSize=6;exitX=0;exitY=0;exitDx=0;exitDy=0;entryX=1;entryY=1;entryDx=0;entryDy=0;" parent="KvnPRHnvs-KlqR3MAuo1-1" source="KvnPRHnvs-KlqR3MAuo1-33" target="KvnPRHnvs-KlqR3MAuo1-33" edge="1">
                    <mxGeometry width="50" height="50" relative="1" as="geometry">
                        <mxPoint x="797" y="1080" as="sourcePoint"/>
                        <mxPoint x="847" y="1030" as="targetPoint"/>
                    </mxGeometry>
                </mxCell>
                <mxCell id="KvnPRHnvs-KlqR3MAuo1-35" value="" style="endArrow=none;html=1;rounded=0;startSize=1;endSize=1;strokeColor=#000000;strokeWidth=7;jumpStyle=none;jumpSize=6;exitX=0;exitY=1;exitDx=0;exitDy=0;entryX=1;entryY=0;entryDx=0;entryDy=0;" parent="KvnPRHnvs-KlqR3MAuo1-1" source="KvnPRHnvs-KlqR3MAuo1-33" target="KvnPRHnvs-KlqR3MAuo1-33" edge="1">
                    <mxGeometry width="50" height="50" relative="1" as="geometry">
                        <mxPoint x="747.2512626584744" y="1080.2512626584744" as="sourcePoint"/>
                        <mxPoint x="796.7487373415256" y="1129.7487373415254" as="targetPoint"/>
                    </mxGeometry>
                </mxCell>
                <mxCell id="KvnPRHnvs-KlqR3MAuo1-36" value="" style="ellipse;whiteSpace=wrap;html=1;aspect=fixed;fillColor=#67AB9F;strokeWidth=3;strokeColor=#000000;" parent="KvnPRHnvs-KlqR3MAuo1-1" vertex="1">
                    <mxGeometry x="924" y="440" width="70" height="70" as="geometry"/>
                </mxCell>
                <mxCell id="KvnPRHnvs-KlqR3MAuo1-37" value="" style="endArrow=none;html=1;rounded=0;startSize=1;endSize=1;strokeColor=#000000;strokeWidth=7;jumpStyle=arc;jumpSize=6;exitX=0;exitY=0;exitDx=0;exitDy=0;entryX=1;entryY=1;entryDx=0;entryDy=0;" parent="KvnPRHnvs-KlqR3MAuo1-1" source="KvnPRHnvs-KlqR3MAuo1-36" target="KvnPRHnvs-KlqR3MAuo1-36" edge="1">
                    <mxGeometry width="50" height="50" relative="1" as="geometry">
                        <mxPoint x="994" y="460" as="sourcePoint"/>
                        <mxPoint x="1044" y="410" as="targetPoint"/>
                    </mxGeometry>
                </mxCell>
                <mxCell id="KvnPRHnvs-KlqR3MAuo1-38" value="" style="endArrow=none;html=1;rounded=0;startSize=1;endSize=1;strokeColor=#000000;strokeWidth=7;jumpStyle=none;jumpSize=6;exitX=0;exitY=1;exitDx=0;exitDy=0;entryX=1;entryY=0;entryDx=0;entryDy=0;" parent="KvnPRHnvs-KlqR3MAuo1-1" source="KvnPRHnvs-KlqR3MAuo1-36" target="KvnPRHnvs-KlqR3MAuo1-36" edge="1">
                    <mxGeometry width="50" height="50" relative="1" as="geometry">
                        <mxPoint x="944.2512626584744" y="460.2512626584743" as="sourcePoint"/>
                        <mxPoint x="993.7487373415256" y="509.7487373415254" as="targetPoint"/>
                    </mxGeometry>
                </mxCell>
                <mxCell id="KvnPRHnvs-KlqR3MAuo1-39" value="" style="ellipse;whiteSpace=wrap;html=1;aspect=fixed;fillColor=#67AB9F;strokeWidth=3;strokeColor=#000000;" parent="KvnPRHnvs-KlqR3MAuo1-1" vertex="1">
                    <mxGeometry x="924" y="570" width="70" height="70" as="geometry"/>
                </mxCell>
                <mxCell id="KvnPRHnvs-KlqR3MAuo1-40" value="" style="endArrow=none;html=1;rounded=0;startSize=1;endSize=1;strokeColor=#000000;strokeWidth=7;jumpStyle=arc;jumpSize=6;exitX=0;exitY=0;exitDx=0;exitDy=0;entryX=1;entryY=1;entryDx=0;entryDy=0;" parent="KvnPRHnvs-KlqR3MAuo1-1" source="KvnPRHnvs-KlqR3MAuo1-39" target="KvnPRHnvs-KlqR3MAuo1-39" edge="1">
                    <mxGeometry width="50" height="50" relative="1" as="geometry">
                        <mxPoint x="994" y="590" as="sourcePoint"/>
                        <mxPoint x="1044" y="540" as="targetPoint"/>
                    </mxGeometry>
                </mxCell>
                <mxCell id="KvnPRHnvs-KlqR3MAuo1-41" value="" style="endArrow=none;html=1;rounded=0;startSize=1;endSize=1;strokeColor=#000000;strokeWidth=7;jumpStyle=none;jumpSize=6;exitX=0;exitY=1;exitDx=0;exitDy=0;entryX=1;entryY=0;entryDx=0;entryDy=0;" parent="KvnPRHnvs-KlqR3MAuo1-1" source="KvnPRHnvs-KlqR3MAuo1-39" target="KvnPRHnvs-KlqR3MAuo1-39" edge="1">
                    <mxGeometry width="50" height="50" relative="1" as="geometry">
                        <mxPoint x="944.2512626584744" y="590.2512626584743" as="sourcePoint"/>
                        <mxPoint x="993.7487373415256" y="639.7487373415254" as="targetPoint"/>
                    </mxGeometry>
                </mxCell>
                <mxCell id="KvnPRHnvs-KlqR3MAuo1-42" value="" style="ellipse;whiteSpace=wrap;html=1;aspect=fixed;fillColor=#67AB9F;strokeWidth=3;strokeColor=#000000;" parent="KvnPRHnvs-KlqR3MAuo1-1" vertex="1">
                    <mxGeometry x="924" y="690" width="70" height="70" as="geometry"/>
                </mxCell>
                <mxCell id="KvnPRHnvs-KlqR3MAuo1-43" value="" style="endArrow=none;html=1;rounded=0;startSize=1;endSize=1;strokeColor=#000000;strokeWidth=7;jumpStyle=arc;jumpSize=6;exitX=0;exitY=0;exitDx=0;exitDy=0;entryX=1;entryY=1;entryDx=0;entryDy=0;" parent="KvnPRHnvs-KlqR3MAuo1-1" source="KvnPRHnvs-KlqR3MAuo1-42" target="KvnPRHnvs-KlqR3MAuo1-42" edge="1">
                    <mxGeometry width="50" height="50" relative="1" as="geometry">
                        <mxPoint x="994" y="710" as="sourcePoint"/>
                        <mxPoint x="1044" y="660" as="targetPoint"/>
                    </mxGeometry>
                </mxCell>
                <mxCell id="KvnPRHnvs-KlqR3MAuo1-44" value="" style="endArrow=none;html=1;rounded=0;startSize=1;endSize=1;strokeColor=#000000;strokeWidth=7;jumpStyle=none;jumpSize=6;exitX=0;exitY=1;exitDx=0;exitDy=0;entryX=1;entryY=0;entryDx=0;entryDy=0;" parent="KvnPRHnvs-KlqR3MAuo1-1" source="KvnPRHnvs-KlqR3MAuo1-42" target="KvnPRHnvs-KlqR3MAuo1-42" edge="1">
                    <mxGeometry width="50" height="50" relative="1" as="geometry">
                        <mxPoint x="944.2512626584744" y="710.2512626584743" as="sourcePoint"/>
                        <mxPoint x="993.7487373415256" y="759.7487373415254" as="targetPoint"/>
                    </mxGeometry>
                </mxCell>
                <mxCell id="KvnPRHnvs-KlqR3MAuo1-45" value="" style="ellipse;whiteSpace=wrap;html=1;aspect=fixed;fillColor=#67AB9F;strokeWidth=3;strokeColor=#000000;" parent="KvnPRHnvs-KlqR3MAuo1-1" vertex="1">
                    <mxGeometry x="924" y="810" width="70" height="70" as="geometry"/>
                </mxCell>
                <mxCell id="KvnPRHnvs-KlqR3MAuo1-46" value="" style="endArrow=none;html=1;rounded=0;startSize=1;endSize=1;strokeColor=#000000;strokeWidth=7;jumpStyle=arc;jumpSize=6;exitX=0;exitY=0;exitDx=0;exitDy=0;entryX=1;entryY=1;entryDx=0;entryDy=0;" parent="KvnPRHnvs-KlqR3MAuo1-1" source="KvnPRHnvs-KlqR3MAuo1-45" target="KvnPRHnvs-KlqR3MAuo1-45" edge="1">
                    <mxGeometry width="50" height="50" relative="1" as="geometry">
                        <mxPoint x="994" y="830" as="sourcePoint"/>
                        <mxPoint x="1044" y="780" as="targetPoint"/>
                    </mxGeometry>
                </mxCell>
                <mxCell id="KvnPRHnvs-KlqR3MAuo1-47" value="" style="endArrow=none;html=1;rounded=0;startSize=1;endSize=1;strokeColor=#000000;strokeWidth=7;jumpStyle=none;jumpSize=6;exitX=0;exitY=1;exitDx=0;exitDy=0;entryX=1;entryY=0;entryDx=0;entryDy=0;" parent="KvnPRHnvs-KlqR3MAuo1-1" source="KvnPRHnvs-KlqR3MAuo1-45" target="KvnPRHnvs-KlqR3MAuo1-45" edge="1">
                    <mxGeometry width="50" height="50" relative="1" as="geometry">
                        <mxPoint x="944.2512626584744" y="830.2512626584743" as="sourcePoint"/>
                        <mxPoint x="993.7487373415256" y="879.7487373415254" as="targetPoint"/>
                    </mxGeometry>
                </mxCell>
                <mxCell id="KvnPRHnvs-KlqR3MAuo1-48" value="" style="ellipse;whiteSpace=wrap;html=1;aspect=fixed;fillColor=#67AB9F;strokeWidth=3;strokeColor=#000000;" parent="KvnPRHnvs-KlqR3MAuo1-1" vertex="1">
                    <mxGeometry x="924" y="940" width="70" height="70" as="geometry"/>
                </mxCell>
                <mxCell id="KvnPRHnvs-KlqR3MAuo1-49" value="" style="endArrow=none;html=1;rounded=0;startSize=1;endSize=1;strokeColor=#000000;strokeWidth=7;jumpStyle=arc;jumpSize=6;exitX=0;exitY=0;exitDx=0;exitDy=0;entryX=1;entryY=1;entryDx=0;entryDy=0;" parent="KvnPRHnvs-KlqR3MAuo1-1" source="KvnPRHnvs-KlqR3MAuo1-48" target="KvnPRHnvs-KlqR3MAuo1-48" edge="1">
                    <mxGeometry width="50" height="50" relative="1" as="geometry">
                        <mxPoint x="994" y="960" as="sourcePoint"/>
                        <mxPoint x="1044" y="910" as="targetPoint"/>
                    </mxGeometry>
                </mxCell>
                <mxCell id="KvnPRHnvs-KlqR3MAuo1-50" value="" style="endArrow=none;html=1;rounded=0;startSize=1;endSize=1;strokeColor=#000000;strokeWidth=7;jumpStyle=none;jumpSize=6;exitX=0;exitY=1;exitDx=0;exitDy=0;entryX=1;entryY=0;entryDx=0;entryDy=0;" parent="KvnPRHnvs-KlqR3MAuo1-1" source="KvnPRHnvs-KlqR3MAuo1-48" target="KvnPRHnvs-KlqR3MAuo1-48" edge="1">
                    <mxGeometry width="50" height="50" relative="1" as="geometry">
                        <mxPoint x="944.2512626584744" y="960.2512626584743" as="sourcePoint"/>
                        <mxPoint x="993.7487373415256" y="1009.7487373415254" as="targetPoint"/>
                    </mxGeometry>
                </mxCell>
                <mxCell id="KvnPRHnvs-KlqR3MAuo1-51" value="" style="ellipse;whiteSpace=wrap;html=1;aspect=fixed;fillColor=#67AB9F;strokeWidth=3;strokeColor=#000000;" parent="KvnPRHnvs-KlqR3MAuo1-1" vertex="1">
                    <mxGeometry x="924" y="1060" width="70" height="70" as="geometry"/>
                </mxCell>
                <mxCell id="KvnPRHnvs-KlqR3MAuo1-52" value="" style="endArrow=none;html=1;rounded=0;startSize=1;endSize=1;strokeColor=#000000;strokeWidth=7;jumpStyle=arc;jumpSize=6;exitX=0;exitY=0;exitDx=0;exitDy=0;entryX=1;entryY=1;entryDx=0;entryDy=0;" parent="KvnPRHnvs-KlqR3MAuo1-1" source="KvnPRHnvs-KlqR3MAuo1-51" target="KvnPRHnvs-KlqR3MAuo1-51" edge="1">
                    <mxGeometry width="50" height="50" relative="1" as="geometry">
                        <mxPoint x="994" y="1080" as="sourcePoint"/>
                        <mxPoint x="1044" y="1030" as="targetPoint"/>
                    </mxGeometry>
                </mxCell>
                <mxCell id="KvnPRHnvs-KlqR3MAuo1-53" value="" style="endArrow=none;html=1;rounded=0;startSize=1;endSize=1;strokeColor=#000000;strokeWidth=7;jumpStyle=none;jumpSize=6;exitX=0;exitY=1;exitDx=0;exitDy=0;entryX=1;entryY=0;entryDx=0;entryDy=0;" parent="KvnPRHnvs-KlqR3MAuo1-1" source="KvnPRHnvs-KlqR3MAuo1-51" target="KvnPRHnvs-KlqR3MAuo1-51" edge="1">
                    <mxGeometry width="50" height="50" relative="1" as="geometry">
                        <mxPoint x="944.2512626584744" y="1080.2512626584744" as="sourcePoint"/>
                        <mxPoint x="993.7487373415256" y="1129.7487373415254" as="targetPoint"/>
                    </mxGeometry>
                </mxCell>
                <mxCell id="KvnPRHnvs-KlqR3MAuo1-54" value="" style="ellipse;whiteSpace=wrap;html=1;aspect=fixed;fillColor=#67AB9F;strokeWidth=3;strokeColor=#000000;" parent="KvnPRHnvs-KlqR3MAuo1-1" vertex="1">
                    <mxGeometry x="1110" y="440" width="70" height="70" as="geometry"/>
                </mxCell>
                <mxCell id="KvnPRHnvs-KlqR3MAuo1-55" value="" style="endArrow=none;html=1;rounded=0;startSize=1;endSize=1;strokeColor=#000000;strokeWidth=7;jumpStyle=arc;jumpSize=6;exitX=0;exitY=0;exitDx=0;exitDy=0;entryX=1;entryY=1;entryDx=0;entryDy=0;" parent="KvnPRHnvs-KlqR3MAuo1-1" source="KvnPRHnvs-KlqR3MAuo1-54" target="KvnPRHnvs-KlqR3MAuo1-54" edge="1">
                    <mxGeometry width="50" height="50" relative="1" as="geometry">
                        <mxPoint x="1180" y="460" as="sourcePoint"/>
                        <mxPoint x="1230" y="410" as="targetPoint"/>
                    </mxGeometry>
                </mxCell>
                <mxCell id="KvnPRHnvs-KlqR3MAuo1-56" value="" style="endArrow=none;html=1;rounded=0;startSize=1;endSize=1;strokeColor=#000000;strokeWidth=7;jumpStyle=none;jumpSize=6;exitX=0;exitY=1;exitDx=0;exitDy=0;entryX=1;entryY=0;entryDx=0;entryDy=0;" parent="KvnPRHnvs-KlqR3MAuo1-1" source="KvnPRHnvs-KlqR3MAuo1-54" target="KvnPRHnvs-KlqR3MAuo1-54" edge="1">
                    <mxGeometry width="50" height="50" relative="1" as="geometry">
                        <mxPoint x="1130.2512626584744" y="460.2512626584743" as="sourcePoint"/>
                        <mxPoint x="1179.7487373415256" y="509.7487373415254" as="targetPoint"/>
                    </mxGeometry>
                </mxCell>
                <mxCell id="KvnPRHnvs-KlqR3MAuo1-57" value="" style="ellipse;whiteSpace=wrap;html=1;aspect=fixed;fillColor=#67AB9F;strokeWidth=3;strokeColor=#000000;" parent="KvnPRHnvs-KlqR3MAuo1-1" vertex="1">
                    <mxGeometry x="1110" y="570" width="70" height="70" as="geometry"/>
                </mxCell>
                <mxCell id="KvnPRHnvs-KlqR3MAuo1-58" value="" style="endArrow=none;html=1;rounded=0;startSize=1;endSize=1;strokeColor=#000000;strokeWidth=7;jumpStyle=arc;jumpSize=6;exitX=0;exitY=0;exitDx=0;exitDy=0;entryX=1;entryY=1;entryDx=0;entryDy=0;" parent="KvnPRHnvs-KlqR3MAuo1-1" source="KvnPRHnvs-KlqR3MAuo1-57" target="KvnPRHnvs-KlqR3MAuo1-57" edge="1">
                    <mxGeometry width="50" height="50" relative="1" as="geometry">
                        <mxPoint x="1180" y="590" as="sourcePoint"/>
                        <mxPoint x="1230" y="540" as="targetPoint"/>
                    </mxGeometry>
                </mxCell>
                <mxCell id="KvnPRHnvs-KlqR3MAuo1-59" value="" style="endArrow=none;html=1;rounded=0;startSize=1;endSize=1;strokeColor=#000000;strokeWidth=7;jumpStyle=none;jumpSize=6;exitX=0;exitY=1;exitDx=0;exitDy=0;entryX=1;entryY=0;entryDx=0;entryDy=0;" parent="KvnPRHnvs-KlqR3MAuo1-1" source="KvnPRHnvs-KlqR3MAuo1-57" target="KvnPRHnvs-KlqR3MAuo1-57" edge="1">
                    <mxGeometry width="50" height="50" relative="1" as="geometry">
                        <mxPoint x="1130.2512626584744" y="590.2512626584743" as="sourcePoint"/>
                        <mxPoint x="1179.7487373415256" y="639.7487373415254" as="targetPoint"/>
                    </mxGeometry>
                </mxCell>
                <mxCell id="KvnPRHnvs-KlqR3MAuo1-60" value="" style="ellipse;whiteSpace=wrap;html=1;aspect=fixed;fillColor=#67AB9F;strokeWidth=3;strokeColor=#000000;" parent="KvnPRHnvs-KlqR3MAuo1-1" vertex="1">
                    <mxGeometry x="1110" y="690" width="70" height="70" as="geometry"/>
                </mxCell>
                <mxCell id="KvnPRHnvs-KlqR3MAuo1-61" value="" style="endArrow=none;html=1;rounded=0;startSize=1;endSize=1;strokeColor=#000000;strokeWidth=7;jumpStyle=arc;jumpSize=6;exitX=0;exitY=0;exitDx=0;exitDy=0;entryX=1;entryY=1;entryDx=0;entryDy=0;" parent="KvnPRHnvs-KlqR3MAuo1-1" source="KvnPRHnvs-KlqR3MAuo1-60" target="KvnPRHnvs-KlqR3MAuo1-60" edge="1">
                    <mxGeometry width="50" height="50" relative="1" as="geometry">
                        <mxPoint x="1180" y="710" as="sourcePoint"/>
                        <mxPoint x="1230" y="660" as="targetPoint"/>
                    </mxGeometry>
                </mxCell>
                <mxCell id="KvnPRHnvs-KlqR3MAuo1-62" value="" style="endArrow=none;html=1;rounded=0;startSize=1;endSize=1;strokeColor=#000000;strokeWidth=7;jumpStyle=none;jumpSize=6;exitX=0;exitY=1;exitDx=0;exitDy=0;entryX=1;entryY=0;entryDx=0;entryDy=0;" parent="KvnPRHnvs-KlqR3MAuo1-1" source="KvnPRHnvs-KlqR3MAuo1-60" target="KvnPRHnvs-KlqR3MAuo1-60" edge="1">
                    <mxGeometry width="50" height="50" relative="1" as="geometry">
                        <mxPoint x="1130.2512626584744" y="710.2512626584743" as="sourcePoint"/>
                        <mxPoint x="1179.7487373415256" y="759.7487373415254" as="targetPoint"/>
                    </mxGeometry>
                </mxCell>
                <mxCell id="KvnPRHnvs-KlqR3MAuo1-63" value="" style="ellipse;whiteSpace=wrap;html=1;aspect=fixed;fillColor=#67AB9F;strokeWidth=3;strokeColor=#000000;" parent="KvnPRHnvs-KlqR3MAuo1-1" vertex="1">
                    <mxGeometry x="1110" y="810" width="70" height="70" as="geometry"/>
                </mxCell>
                <mxCell id="KvnPRHnvs-KlqR3MAuo1-64" value="" style="endArrow=none;html=1;rounded=0;startSize=1;endSize=1;strokeColor=#000000;strokeWidth=7;jumpStyle=arc;jumpSize=6;exitX=0;exitY=0;exitDx=0;exitDy=0;entryX=1;entryY=1;entryDx=0;entryDy=0;" parent="KvnPRHnvs-KlqR3MAuo1-1" source="KvnPRHnvs-KlqR3MAuo1-63" target="KvnPRHnvs-KlqR3MAuo1-63" edge="1">
                    <mxGeometry width="50" height="50" relative="1" as="geometry">
                        <mxPoint x="1180" y="830" as="sourcePoint"/>
                        <mxPoint x="1230" y="780" as="targetPoint"/>
                    </mxGeometry>
                </mxCell>
                <mxCell id="KvnPRHnvs-KlqR3MAuo1-65" value="" style="endArrow=none;html=1;rounded=0;startSize=1;endSize=1;strokeColor=#000000;strokeWidth=7;jumpStyle=none;jumpSize=6;exitX=0;exitY=1;exitDx=0;exitDy=0;entryX=1;entryY=0;entryDx=0;entryDy=0;" parent="KvnPRHnvs-KlqR3MAuo1-1" source="KvnPRHnvs-KlqR3MAuo1-63" target="KvnPRHnvs-KlqR3MAuo1-63" edge="1">
                    <mxGeometry width="50" height="50" relative="1" as="geometry">
                        <mxPoint x="1130.2512626584744" y="830.2512626584743" as="sourcePoint"/>
                        <mxPoint x="1179.7487373415256" y="879.7487373415254" as="targetPoint"/>
                    </mxGeometry>
                </mxCell>
                <mxCell id="KvnPRHnvs-KlqR3MAuo1-66" value="" style="ellipse;whiteSpace=wrap;html=1;aspect=fixed;fillColor=#67AB9F;strokeWidth=3;strokeColor=#000000;" parent="KvnPRHnvs-KlqR3MAuo1-1" vertex="1">
                    <mxGeometry x="1110" y="940" width="70" height="70" as="geometry"/>
                </mxCell>
                <mxCell id="KvnPRHnvs-KlqR3MAuo1-67" value="" style="endArrow=none;html=1;rounded=0;startSize=1;endSize=1;strokeColor=#000000;strokeWidth=7;jumpStyle=arc;jumpSize=6;exitX=0;exitY=0;exitDx=0;exitDy=0;entryX=1;entryY=1;entryDx=0;entryDy=0;" parent="KvnPRHnvs-KlqR3MAuo1-1" source="KvnPRHnvs-KlqR3MAuo1-66" target="KvnPRHnvs-KlqR3MAuo1-66" edge="1">
                    <mxGeometry width="50" height="50" relative="1" as="geometry">
                        <mxPoint x="1180" y="960" as="sourcePoint"/>
                        <mxPoint x="1230" y="910" as="targetPoint"/>
                    </mxGeometry>
                </mxCell>
                <mxCell id="KvnPRHnvs-KlqR3MAuo1-68" value="" style="endArrow=none;html=1;rounded=0;startSize=1;endSize=1;strokeColor=#000000;strokeWidth=7;jumpStyle=none;jumpSize=6;exitX=0;exitY=1;exitDx=0;exitDy=0;entryX=1;entryY=0;entryDx=0;entryDy=0;" parent="KvnPRHnvs-KlqR3MAuo1-1" source="KvnPRHnvs-KlqR3MAuo1-66" target="KvnPRHnvs-KlqR3MAuo1-66" edge="1">
                    <mxGeometry width="50" height="50" relative="1" as="geometry">
                        <mxPoint x="1130.2512626584744" y="960.2512626584743" as="sourcePoint"/>
                        <mxPoint x="1179.7487373415256" y="1009.7487373415254" as="targetPoint"/>
                    </mxGeometry>
                </mxCell>
                <mxCell id="KvnPRHnvs-KlqR3MAuo1-69" value="" style="ellipse;whiteSpace=wrap;html=1;aspect=fixed;fillColor=#67AB9F;strokeWidth=3;strokeColor=#000000;" parent="KvnPRHnvs-KlqR3MAuo1-1" vertex="1">
                    <mxGeometry x="1110" y="1060" width="70" height="70" as="geometry"/>
                </mxCell>
                <mxCell id="KvnPRHnvs-KlqR3MAuo1-70" value="" style="endArrow=none;html=1;rounded=0;startSize=1;endSize=1;strokeColor=#000000;strokeWidth=7;jumpStyle=arc;jumpSize=6;exitX=0;exitY=0;exitDx=0;exitDy=0;entryX=1;entryY=1;entryDx=0;entryDy=0;" parent="KvnPRHnvs-KlqR3MAuo1-1" source="KvnPRHnvs-KlqR3MAuo1-69" target="KvnPRHnvs-KlqR3MAuo1-69" edge="1">
                    <mxGeometry width="50" height="50" relative="1" as="geometry">
                        <mxPoint x="1180" y="1080" as="sourcePoint"/>
                        <mxPoint x="1230" y="1030" as="targetPoint"/>
                    </mxGeometry>
                </mxCell>
                <mxCell id="KvnPRHnvs-KlqR3MAuo1-71" value="" style="endArrow=none;html=1;rounded=0;startSize=1;endSize=1;strokeColor=#000000;strokeWidth=7;jumpStyle=none;jumpSize=6;exitX=0;exitY=1;exitDx=0;exitDy=0;entryX=1;entryY=0;entryDx=0;entryDy=0;" parent="KvnPRHnvs-KlqR3MAuo1-1" source="KvnPRHnvs-KlqR3MAuo1-69" target="KvnPRHnvs-KlqR3MAuo1-69" edge="1">
                    <mxGeometry width="50" height="50" relative="1" as="geometry">
                        <mxPoint x="1130.2512626584744" y="1080.2512626584744" as="sourcePoint"/>
                        <mxPoint x="1179.7487373415256" y="1129.7487373415254" as="targetPoint"/>
                    </mxGeometry>
                </mxCell>
                <mxCell id="KvnPRHnvs-KlqR3MAuo1-72" value="" style="ellipse;whiteSpace=wrap;html=1;aspect=fixed;fillColor=#67AB9F;strokeWidth=3;strokeColor=#000000;" parent="KvnPRHnvs-KlqR3MAuo1-1" vertex="1">
                    <mxGeometry x="1307" y="440" width="70" height="70" as="geometry"/>
                </mxCell>
                <mxCell id="KvnPRHnvs-KlqR3MAuo1-73" value="" style="endArrow=none;html=1;rounded=0;startSize=1;endSize=1;strokeColor=#000000;strokeWidth=7;jumpStyle=arc;jumpSize=6;exitX=0;exitY=0;exitDx=0;exitDy=0;entryX=1;entryY=1;entryDx=0;entryDy=0;" parent="KvnPRHnvs-KlqR3MAuo1-1" source="KvnPRHnvs-KlqR3MAuo1-72" target="KvnPRHnvs-KlqR3MAuo1-72" edge="1">
                    <mxGeometry width="50" height="50" relative="1" as="geometry">
                        <mxPoint x="1377" y="460" as="sourcePoint"/>
                        <mxPoint x="1427" y="410" as="targetPoint"/>
                    </mxGeometry>
                </mxCell>
                <mxCell id="KvnPRHnvs-KlqR3MAuo1-74" value="" style="endArrow=none;html=1;rounded=0;startSize=1;endSize=1;strokeColor=#000000;strokeWidth=7;jumpStyle=none;jumpSize=6;exitX=0;exitY=1;exitDx=0;exitDy=0;entryX=1;entryY=0;entryDx=0;entryDy=0;" parent="KvnPRHnvs-KlqR3MAuo1-1" source="KvnPRHnvs-KlqR3MAuo1-72" target="KvnPRHnvs-KlqR3MAuo1-72" edge="1">
                    <mxGeometry width="50" height="50" relative="1" as="geometry">
                        <mxPoint x="1327.2512626584744" y="460.2512626584743" as="sourcePoint"/>
                        <mxPoint x="1376.7487373415256" y="509.7487373415254" as="targetPoint"/>
                    </mxGeometry>
                </mxCell>
                <mxCell id="KvnPRHnvs-KlqR3MAuo1-75" value="" style="ellipse;whiteSpace=wrap;html=1;aspect=fixed;fillColor=#67AB9F;strokeWidth=3;strokeColor=#000000;" parent="KvnPRHnvs-KlqR3MAuo1-1" vertex="1">
                    <mxGeometry x="1307" y="570" width="70" height="70" as="geometry"/>
                </mxCell>
                <mxCell id="KvnPRHnvs-KlqR3MAuo1-76" value="" style="endArrow=none;html=1;rounded=0;startSize=1;endSize=1;strokeColor=#000000;strokeWidth=7;jumpStyle=arc;jumpSize=6;exitX=0;exitY=0;exitDx=0;exitDy=0;entryX=1;entryY=1;entryDx=0;entryDy=0;" parent="KvnPRHnvs-KlqR3MAuo1-1" source="KvnPRHnvs-KlqR3MAuo1-75" target="KvnPRHnvs-KlqR3MAuo1-75" edge="1">
                    <mxGeometry width="50" height="50" relative="1" as="geometry">
                        <mxPoint x="1377" y="590" as="sourcePoint"/>
                        <mxPoint x="1427" y="540" as="targetPoint"/>
                    </mxGeometry>
                </mxCell>
                <mxCell id="KvnPRHnvs-KlqR3MAuo1-77" value="" style="endArrow=none;html=1;rounded=0;startSize=1;endSize=1;strokeColor=#000000;strokeWidth=7;jumpStyle=none;jumpSize=6;exitX=0;exitY=1;exitDx=0;exitDy=0;entryX=1;entryY=0;entryDx=0;entryDy=0;" parent="KvnPRHnvs-KlqR3MAuo1-1" source="KvnPRHnvs-KlqR3MAuo1-75" target="KvnPRHnvs-KlqR3MAuo1-75" edge="1">
                    <mxGeometry width="50" height="50" relative="1" as="geometry">
                        <mxPoint x="1327.2512626584744" y="590.2512626584743" as="sourcePoint"/>
                        <mxPoint x="1376.7487373415256" y="639.7487373415254" as="targetPoint"/>
                    </mxGeometry>
                </mxCell>
                <mxCell id="KvnPRHnvs-KlqR3MAuo1-78" value="" style="ellipse;whiteSpace=wrap;html=1;aspect=fixed;fillColor=#67AB9F;strokeWidth=3;strokeColor=#000000;" parent="KvnPRHnvs-KlqR3MAuo1-1" vertex="1">
                    <mxGeometry x="1307" y="690" width="70" height="70" as="geometry"/>
                </mxCell>
                <mxCell id="KvnPRHnvs-KlqR3MAuo1-79" value="" style="endArrow=none;html=1;rounded=0;startSize=1;endSize=1;strokeColor=#000000;strokeWidth=7;jumpStyle=arc;jumpSize=6;exitX=0;exitY=0;exitDx=0;exitDy=0;entryX=1;entryY=1;entryDx=0;entryDy=0;" parent="KvnPRHnvs-KlqR3MAuo1-1" source="KvnPRHnvs-KlqR3MAuo1-78" target="KvnPRHnvs-KlqR3MAuo1-78" edge="1">
                    <mxGeometry width="50" height="50" relative="1" as="geometry">
                        <mxPoint x="1377" y="710" as="sourcePoint"/>
                        <mxPoint x="1427" y="660" as="targetPoint"/>
                    </mxGeometry>
                </mxCell>
                <mxCell id="KvnPRHnvs-KlqR3MAuo1-80" value="" style="endArrow=none;html=1;rounded=0;startSize=1;endSize=1;strokeColor=#000000;strokeWidth=7;jumpStyle=none;jumpSize=6;exitX=0;exitY=1;exitDx=0;exitDy=0;entryX=1;entryY=0;entryDx=0;entryDy=0;" parent="KvnPRHnvs-KlqR3MAuo1-1" source="KvnPRHnvs-KlqR3MAuo1-78" target="KvnPRHnvs-KlqR3MAuo1-78" edge="1">
                    <mxGeometry width="50" height="50" relative="1" as="geometry">
                        <mxPoint x="1327.2512626584744" y="710.2512626584743" as="sourcePoint"/>
                        <mxPoint x="1376.7487373415256" y="759.7487373415254" as="targetPoint"/>
                    </mxGeometry>
                </mxCell>
                <mxCell id="KvnPRHnvs-KlqR3MAuo1-81" value="" style="ellipse;whiteSpace=wrap;html=1;aspect=fixed;fillColor=#67AB9F;strokeWidth=3;strokeColor=#000000;" parent="KvnPRHnvs-KlqR3MAuo1-1" vertex="1">
                    <mxGeometry x="1307" y="810" width="70" height="70" as="geometry"/>
                </mxCell>
                <mxCell id="KvnPRHnvs-KlqR3MAuo1-82" value="" style="endArrow=none;html=1;rounded=0;startSize=1;endSize=1;strokeColor=#000000;strokeWidth=7;jumpStyle=arc;jumpSize=6;exitX=0;exitY=0;exitDx=0;exitDy=0;entryX=1;entryY=1;entryDx=0;entryDy=0;" parent="KvnPRHnvs-KlqR3MAuo1-1" source="KvnPRHnvs-KlqR3MAuo1-81" target="KvnPRHnvs-KlqR3MAuo1-81" edge="1">
                    <mxGeometry width="50" height="50" relative="1" as="geometry">
                        <mxPoint x="1377" y="830" as="sourcePoint"/>
                        <mxPoint x="1427" y="780" as="targetPoint"/>
                    </mxGeometry>
                </mxCell>
                <mxCell id="KvnPRHnvs-KlqR3MAuo1-83" value="" style="endArrow=none;html=1;rounded=0;startSize=1;endSize=1;strokeColor=#000000;strokeWidth=7;jumpStyle=none;jumpSize=6;exitX=0;exitY=1;exitDx=0;exitDy=0;entryX=1;entryY=0;entryDx=0;entryDy=0;" parent="KvnPRHnvs-KlqR3MAuo1-1" source="KvnPRHnvs-KlqR3MAuo1-81" target="KvnPRHnvs-KlqR3MAuo1-81" edge="1">
                    <mxGeometry width="50" height="50" relative="1" as="geometry">
                        <mxPoint x="1327.2512626584744" y="830.2512626584743" as="sourcePoint"/>
                        <mxPoint x="1376.7487373415256" y="879.7487373415254" as="targetPoint"/>
                    </mxGeometry>
                </mxCell>
                <mxCell id="KvnPRHnvs-KlqR3MAuo1-84" value="" style="ellipse;whiteSpace=wrap;html=1;aspect=fixed;fillColor=#67AB9F;strokeWidth=3;strokeColor=#000000;" parent="KvnPRHnvs-KlqR3MAuo1-1" vertex="1">
                    <mxGeometry x="1307" y="940" width="70" height="70" as="geometry"/>
                </mxCell>
                <mxCell id="KvnPRHnvs-KlqR3MAuo1-85" value="" style="endArrow=none;html=1;rounded=0;startSize=1;endSize=1;strokeColor=#000000;strokeWidth=7;jumpStyle=arc;jumpSize=6;exitX=0;exitY=0;exitDx=0;exitDy=0;entryX=1;entryY=1;entryDx=0;entryDy=0;" parent="KvnPRHnvs-KlqR3MAuo1-1" source="KvnPRHnvs-KlqR3MAuo1-84" target="KvnPRHnvs-KlqR3MAuo1-84" edge="1">
                    <mxGeometry width="50" height="50" relative="1" as="geometry">
                        <mxPoint x="1377" y="960" as="sourcePoint"/>
                        <mxPoint x="1427" y="910" as="targetPoint"/>
                    </mxGeometry>
                </mxCell>
                <mxCell id="KvnPRHnvs-KlqR3MAuo1-86" value="" style="endArrow=none;html=1;rounded=0;startSize=1;endSize=1;strokeColor=#000000;strokeWidth=7;jumpStyle=none;jumpSize=6;exitX=0;exitY=1;exitDx=0;exitDy=0;entryX=1;entryY=0;entryDx=0;entryDy=0;" parent="KvnPRHnvs-KlqR3MAuo1-1" source="KvnPRHnvs-KlqR3MAuo1-84" target="KvnPRHnvs-KlqR3MAuo1-84" edge="1">
                    <mxGeometry width="50" height="50" relative="1" as="geometry">
                        <mxPoint x="1327.2512626584744" y="960.2512626584743" as="sourcePoint"/>
                        <mxPoint x="1376.7487373415256" y="1009.7487373415254" as="targetPoint"/>
                    </mxGeometry>
                </mxCell>
                <mxCell id="KvnPRHnvs-KlqR3MAuo1-87" value="" style="ellipse;whiteSpace=wrap;html=1;aspect=fixed;fillColor=#67AB9F;strokeWidth=3;strokeColor=#000000;" parent="KvnPRHnvs-KlqR3MAuo1-1" vertex="1">
                    <mxGeometry x="1307" y="1060" width="70" height="70" as="geometry"/>
                </mxCell>
                <mxCell id="KvnPRHnvs-KlqR3MAuo1-88" value="" style="endArrow=none;html=1;rounded=0;startSize=1;endSize=1;strokeColor=#000000;strokeWidth=7;jumpStyle=arc;jumpSize=6;exitX=0;exitY=0;exitDx=0;exitDy=0;entryX=1;entryY=1;entryDx=0;entryDy=0;" parent="KvnPRHnvs-KlqR3MAuo1-1" source="KvnPRHnvs-KlqR3MAuo1-87" target="KvnPRHnvs-KlqR3MAuo1-87" edge="1">
                    <mxGeometry width="50" height="50" relative="1" as="geometry">
                        <mxPoint x="1377" y="1080" as="sourcePoint"/>
                        <mxPoint x="1427" y="1030" as="targetPoint"/>
                    </mxGeometry>
                </mxCell>
                <mxCell id="KvnPRHnvs-KlqR3MAuo1-89" value="" style="endArrow=none;html=1;rounded=0;startSize=1;endSize=1;strokeColor=#000000;strokeWidth=7;jumpStyle=none;jumpSize=6;exitX=0;exitY=1;exitDx=0;exitDy=0;entryX=1;entryY=0;entryDx=0;entryDy=0;" parent="KvnPRHnvs-KlqR3MAuo1-1" source="KvnPRHnvs-KlqR3MAuo1-87" target="KvnPRHnvs-KlqR3MAuo1-87" edge="1">
                    <mxGeometry width="50" height="50" relative="1" as="geometry">
                        <mxPoint x="1327.2512626584744" y="1080.2512626584744" as="sourcePoint"/>
                        <mxPoint x="1376.7487373415256" y="1129.7487373415254" as="targetPoint"/>
                    </mxGeometry>
                </mxCell>
                <mxCell id="KvnPRHnvs-KlqR3MAuo1-90" value="" style="ellipse;whiteSpace=wrap;html=1;aspect=fixed;fillColor=#67AB9F;strokeWidth=3;strokeColor=#000000;" parent="KvnPRHnvs-KlqR3MAuo1-1" vertex="1">
                    <mxGeometry x="1499.6" y="440" width="70" height="70" as="geometry"/>
                </mxCell>
                <mxCell id="KvnPRHnvs-KlqR3MAuo1-91" value="" style="endArrow=none;html=1;rounded=0;startSize=1;endSize=1;strokeColor=#000000;strokeWidth=7;jumpStyle=arc;jumpSize=6;exitX=0;exitY=0;exitDx=0;exitDy=0;entryX=1;entryY=1;entryDx=0;entryDy=0;" parent="KvnPRHnvs-KlqR3MAuo1-1" source="KvnPRHnvs-KlqR3MAuo1-90" target="KvnPRHnvs-KlqR3MAuo1-90" edge="1">
                    <mxGeometry width="50" height="50" relative="1" as="geometry">
                        <mxPoint x="1569.6" y="460" as="sourcePoint"/>
                        <mxPoint x="1619.6" y="410" as="targetPoint"/>
                    </mxGeometry>
                </mxCell>
                <mxCell id="KvnPRHnvs-KlqR3MAuo1-92" value="" style="endArrow=none;html=1;rounded=0;startSize=1;endSize=1;strokeColor=#000000;strokeWidth=7;jumpStyle=none;jumpSize=6;exitX=0;exitY=1;exitDx=0;exitDy=0;entryX=1;entryY=0;entryDx=0;entryDy=0;" parent="KvnPRHnvs-KlqR3MAuo1-1" source="KvnPRHnvs-KlqR3MAuo1-90" target="KvnPRHnvs-KlqR3MAuo1-90" edge="1">
                    <mxGeometry width="50" height="50" relative="1" as="geometry">
                        <mxPoint x="1519.8512626584743" y="460.2512626584743" as="sourcePoint"/>
                        <mxPoint x="1569.3487373415255" y="509.7487373415254" as="targetPoint"/>
                    </mxGeometry>
                </mxCell>
                <mxCell id="KvnPRHnvs-KlqR3MAuo1-93" value="" style="ellipse;whiteSpace=wrap;html=1;aspect=fixed;fillColor=#67AB9F;strokeWidth=3;strokeColor=#000000;" parent="KvnPRHnvs-KlqR3MAuo1-1" vertex="1">
                    <mxGeometry x="1499.6" y="570" width="70" height="70" as="geometry"/>
                </mxCell>
                <mxCell id="KvnPRHnvs-KlqR3MAuo1-94" value="" style="endArrow=none;html=1;rounded=0;startSize=1;endSize=1;strokeColor=#000000;strokeWidth=7;jumpStyle=arc;jumpSize=6;exitX=0;exitY=0;exitDx=0;exitDy=0;entryX=1;entryY=1;entryDx=0;entryDy=0;" parent="KvnPRHnvs-KlqR3MAuo1-1" source="KvnPRHnvs-KlqR3MAuo1-93" target="KvnPRHnvs-KlqR3MAuo1-93" edge="1">
                    <mxGeometry width="50" height="50" relative="1" as="geometry">
                        <mxPoint x="1569.6" y="590" as="sourcePoint"/>
                        <mxPoint x="1619.6" y="540" as="targetPoint"/>
                    </mxGeometry>
                </mxCell>
                <mxCell id="KvnPRHnvs-KlqR3MAuo1-95" value="" style="endArrow=none;html=1;rounded=0;startSize=1;endSize=1;strokeColor=#000000;strokeWidth=7;jumpStyle=none;jumpSize=6;exitX=0;exitY=1;exitDx=0;exitDy=0;entryX=1;entryY=0;entryDx=0;entryDy=0;" parent="KvnPRHnvs-KlqR3MAuo1-1" source="KvnPRHnvs-KlqR3MAuo1-93" target="KvnPRHnvs-KlqR3MAuo1-93" edge="1">
                    <mxGeometry width="50" height="50" relative="1" as="geometry">
                        <mxPoint x="1519.8512626584743" y="590.2512626584743" as="sourcePoint"/>
                        <mxPoint x="1569.3487373415255" y="639.7487373415254" as="targetPoint"/>
                    </mxGeometry>
                </mxCell>
                <mxCell id="KvnPRHnvs-KlqR3MAuo1-96" value="" style="ellipse;whiteSpace=wrap;html=1;aspect=fixed;fillColor=#67AB9F;strokeWidth=3;strokeColor=#000000;" parent="KvnPRHnvs-KlqR3MAuo1-1" vertex="1">
                    <mxGeometry x="1499.6" y="690" width="70" height="70" as="geometry"/>
                </mxCell>
                <mxCell id="KvnPRHnvs-KlqR3MAuo1-97" value="" style="endArrow=none;html=1;rounded=0;startSize=1;endSize=1;strokeColor=#000000;strokeWidth=7;jumpStyle=arc;jumpSize=6;exitX=0;exitY=0;exitDx=0;exitDy=0;entryX=1;entryY=1;entryDx=0;entryDy=0;" parent="KvnPRHnvs-KlqR3MAuo1-1" source="KvnPRHnvs-KlqR3MAuo1-96" target="KvnPRHnvs-KlqR3MAuo1-96" edge="1">
                    <mxGeometry width="50" height="50" relative="1" as="geometry">
                        <mxPoint x="1569.6" y="710" as="sourcePoint"/>
                        <mxPoint x="1619.6" y="660" as="targetPoint"/>
                    </mxGeometry>
                </mxCell>
                <mxCell id="KvnPRHnvs-KlqR3MAuo1-98" value="" style="endArrow=none;html=1;rounded=0;startSize=1;endSize=1;strokeColor=#000000;strokeWidth=7;jumpStyle=none;jumpSize=6;exitX=0;exitY=1;exitDx=0;exitDy=0;entryX=1;entryY=0;entryDx=0;entryDy=0;" parent="KvnPRHnvs-KlqR3MAuo1-1" source="KvnPRHnvs-KlqR3MAuo1-96" target="KvnPRHnvs-KlqR3MAuo1-96" edge="1">
                    <mxGeometry width="50" height="50" relative="1" as="geometry">
                        <mxPoint x="1519.8512626584743" y="710.2512626584743" as="sourcePoint"/>
                        <mxPoint x="1569.3487373415255" y="759.7487373415254" as="targetPoint"/>
                    </mxGeometry>
                </mxCell>
                <mxCell id="KvnPRHnvs-KlqR3MAuo1-99" value="" style="ellipse;whiteSpace=wrap;html=1;aspect=fixed;fillColor=#67AB9F;strokeWidth=3;strokeColor=#000000;" parent="KvnPRHnvs-KlqR3MAuo1-1" vertex="1">
                    <mxGeometry x="1499.6" y="810" width="70" height="70" as="geometry"/>
                </mxCell>
                <mxCell id="KvnPRHnvs-KlqR3MAuo1-100" value="" style="endArrow=none;html=1;rounded=0;startSize=1;endSize=1;strokeColor=#000000;strokeWidth=7;jumpStyle=arc;jumpSize=6;exitX=0;exitY=0;exitDx=0;exitDy=0;entryX=1;entryY=1;entryDx=0;entryDy=0;" parent="KvnPRHnvs-KlqR3MAuo1-1" source="KvnPRHnvs-KlqR3MAuo1-99" target="KvnPRHnvs-KlqR3MAuo1-99" edge="1">
                    <mxGeometry width="50" height="50" relative="1" as="geometry">
                        <mxPoint x="1569.6" y="830" as="sourcePoint"/>
                        <mxPoint x="1619.6" y="780" as="targetPoint"/>
                    </mxGeometry>
                </mxCell>
                <mxCell id="KvnPRHnvs-KlqR3MAuo1-101" value="" style="endArrow=none;html=1;rounded=0;startSize=1;endSize=1;strokeColor=#000000;strokeWidth=7;jumpStyle=none;jumpSize=6;exitX=0;exitY=1;exitDx=0;exitDy=0;entryX=1;entryY=0;entryDx=0;entryDy=0;" parent="KvnPRHnvs-KlqR3MAuo1-1" source="KvnPRHnvs-KlqR3MAuo1-99" target="KvnPRHnvs-KlqR3MAuo1-99" edge="1">
                    <mxGeometry width="50" height="50" relative="1" as="geometry">
                        <mxPoint x="1519.8512626584743" y="830.2512626584743" as="sourcePoint"/>
                        <mxPoint x="1569.3487373415255" y="879.7487373415254" as="targetPoint"/>
                    </mxGeometry>
                </mxCell>
                <mxCell id="KvnPRHnvs-KlqR3MAuo1-102" value="" style="ellipse;whiteSpace=wrap;html=1;aspect=fixed;fillColor=#67AB9F;strokeWidth=3;strokeColor=#000000;" parent="KvnPRHnvs-KlqR3MAuo1-1" vertex="1">
                    <mxGeometry x="1499.6" y="940" width="70" height="70" as="geometry"/>
                </mxCell>
                <mxCell id="KvnPRHnvs-KlqR3MAuo1-103" value="" style="endArrow=none;html=1;rounded=0;startSize=1;endSize=1;strokeColor=#000000;strokeWidth=7;jumpStyle=arc;jumpSize=6;exitX=0;exitY=0;exitDx=0;exitDy=0;entryX=1;entryY=1;entryDx=0;entryDy=0;" parent="KvnPRHnvs-KlqR3MAuo1-1" source="KvnPRHnvs-KlqR3MAuo1-102" target="KvnPRHnvs-KlqR3MAuo1-102" edge="1">
                    <mxGeometry width="50" height="50" relative="1" as="geometry">
                        <mxPoint x="1569.6" y="960" as="sourcePoint"/>
                        <mxPoint x="1619.6" y="910" as="targetPoint"/>
                    </mxGeometry>
                </mxCell>
                <mxCell id="KvnPRHnvs-KlqR3MAuo1-104" value="" style="endArrow=none;html=1;rounded=0;startSize=1;endSize=1;strokeColor=#000000;strokeWidth=7;jumpStyle=none;jumpSize=6;exitX=0;exitY=1;exitDx=0;exitDy=0;entryX=1;entryY=0;entryDx=0;entryDy=0;" parent="KvnPRHnvs-KlqR3MAuo1-1" source="KvnPRHnvs-KlqR3MAuo1-102" target="KvnPRHnvs-KlqR3MAuo1-102" edge="1">
                    <mxGeometry width="50" height="50" relative="1" as="geometry">
                        <mxPoint x="1519.8512626584743" y="960.2512626584743" as="sourcePoint"/>
                        <mxPoint x="1569.3487373415255" y="1009.7487373415254" as="targetPoint"/>
                    </mxGeometry>
                </mxCell>
                <mxCell id="KvnPRHnvs-KlqR3MAuo1-105" value="" style="ellipse;whiteSpace=wrap;html=1;aspect=fixed;fillColor=#67AB9F;strokeWidth=3;strokeColor=#000000;" parent="KvnPRHnvs-KlqR3MAuo1-1" vertex="1">
                    <mxGeometry x="1499.6" y="1060" width="70" height="70" as="geometry"/>
                </mxCell>
                <mxCell id="KvnPRHnvs-KlqR3MAuo1-106" value="" style="endArrow=none;html=1;rounded=0;startSize=1;endSize=1;strokeColor=#000000;strokeWidth=7;jumpStyle=arc;jumpSize=6;exitX=0;exitY=0;exitDx=0;exitDy=0;entryX=1;entryY=1;entryDx=0;entryDy=0;" parent="KvnPRHnvs-KlqR3MAuo1-1" source="KvnPRHnvs-KlqR3MAuo1-105" target="KvnPRHnvs-KlqR3MAuo1-105" edge="1">
                    <mxGeometry width="50" height="50" relative="1" as="geometry">
                        <mxPoint x="1569.6" y="1080" as="sourcePoint"/>
                        <mxPoint x="1619.6" y="1030" as="targetPoint"/>
                    </mxGeometry>
                </mxCell>
                <mxCell id="KvnPRHnvs-KlqR3MAuo1-107" value="" style="endArrow=none;html=1;rounded=0;startSize=1;endSize=1;strokeColor=#000000;strokeWidth=7;jumpStyle=none;jumpSize=6;exitX=0;exitY=1;exitDx=0;exitDy=0;entryX=1;entryY=0;entryDx=0;entryDy=0;" parent="KvnPRHnvs-KlqR3MAuo1-1" source="KvnPRHnvs-KlqR3MAuo1-105" target="KvnPRHnvs-KlqR3MAuo1-105" edge="1">
                    <mxGeometry width="50" height="50" relative="1" as="geometry">
                        <mxPoint x="1519.8512626584743" y="1080.2512626584744" as="sourcePoint"/>
                        <mxPoint x="1569.3487373415255" y="1129.7487373415254" as="targetPoint"/>
                    </mxGeometry>
                </mxCell>
                <mxCell id="KvnPRHnvs-KlqR3MAuo1-108" value="" style="ellipse;whiteSpace=wrap;html=1;aspect=fixed;fillColor=#67AB9F;strokeWidth=3;strokeColor=#000000;" parent="KvnPRHnvs-KlqR3MAuo1-1" vertex="1">
                    <mxGeometry x="1696.6" y="440" width="70" height="70" as="geometry"/>
                </mxCell>
                <mxCell id="KvnPRHnvs-KlqR3MAuo1-109" value="" style="endArrow=none;html=1;rounded=0;startSize=1;endSize=1;strokeColor=#000000;strokeWidth=7;jumpStyle=arc;jumpSize=6;exitX=0;exitY=0;exitDx=0;exitDy=0;entryX=1;entryY=1;entryDx=0;entryDy=0;" parent="KvnPRHnvs-KlqR3MAuo1-1" source="KvnPRHnvs-KlqR3MAuo1-108" target="KvnPRHnvs-KlqR3MAuo1-108" edge="1">
                    <mxGeometry width="50" height="50" relative="1" as="geometry">
                        <mxPoint x="1766.6" y="460" as="sourcePoint"/>
                        <mxPoint x="1816.6" y="410" as="targetPoint"/>
                    </mxGeometry>
                </mxCell>
                <mxCell id="KvnPRHnvs-KlqR3MAuo1-110" value="" style="endArrow=none;html=1;rounded=0;startSize=1;endSize=1;strokeColor=#000000;strokeWidth=7;jumpStyle=none;jumpSize=6;exitX=0;exitY=1;exitDx=0;exitDy=0;entryX=1;entryY=0;entryDx=0;entryDy=0;" parent="KvnPRHnvs-KlqR3MAuo1-1" source="KvnPRHnvs-KlqR3MAuo1-108" target="KvnPRHnvs-KlqR3MAuo1-108" edge="1">
                    <mxGeometry width="50" height="50" relative="1" as="geometry">
                        <mxPoint x="1716.8512626584743" y="460.2512626584743" as="sourcePoint"/>
                        <mxPoint x="1766.3487373415255" y="509.7487373415254" as="targetPoint"/>
                    </mxGeometry>
                </mxCell>
                <mxCell id="KvnPRHnvs-KlqR3MAuo1-111" value="" style="ellipse;whiteSpace=wrap;html=1;aspect=fixed;fillColor=#67AB9F;strokeWidth=3;strokeColor=#000000;" parent="KvnPRHnvs-KlqR3MAuo1-1" vertex="1">
                    <mxGeometry x="1696.6" y="570" width="70" height="70" as="geometry"/>
                </mxCell>
                <mxCell id="KvnPRHnvs-KlqR3MAuo1-112" value="" style="endArrow=none;html=1;rounded=0;startSize=1;endSize=1;strokeColor=#000000;strokeWidth=7;jumpStyle=arc;jumpSize=6;exitX=0;exitY=0;exitDx=0;exitDy=0;entryX=1;entryY=1;entryDx=0;entryDy=0;" parent="KvnPRHnvs-KlqR3MAuo1-1" source="KvnPRHnvs-KlqR3MAuo1-111" target="KvnPRHnvs-KlqR3MAuo1-111" edge="1">
                    <mxGeometry width="50" height="50" relative="1" as="geometry">
                        <mxPoint x="1766.6" y="590" as="sourcePoint"/>
                        <mxPoint x="1816.6" y="540" as="targetPoint"/>
                    </mxGeometry>
                </mxCell>
                <mxCell id="KvnPRHnvs-KlqR3MAuo1-113" value="" style="endArrow=none;html=1;rounded=0;startSize=1;endSize=1;strokeColor=#000000;strokeWidth=7;jumpStyle=none;jumpSize=6;exitX=0;exitY=1;exitDx=0;exitDy=0;entryX=1;entryY=0;entryDx=0;entryDy=0;" parent="KvnPRHnvs-KlqR3MAuo1-1" source="KvnPRHnvs-KlqR3MAuo1-111" target="KvnPRHnvs-KlqR3MAuo1-111" edge="1">
                    <mxGeometry width="50" height="50" relative="1" as="geometry">
                        <mxPoint x="1716.8512626584743" y="590.2512626584743" as="sourcePoint"/>
                        <mxPoint x="1766.3487373415255" y="639.7487373415254" as="targetPoint"/>
                    </mxGeometry>
                </mxCell>
                <mxCell id="KvnPRHnvs-KlqR3MAuo1-114" value="" style="ellipse;whiteSpace=wrap;html=1;aspect=fixed;fillColor=#67AB9F;strokeWidth=3;strokeColor=#000000;" parent="KvnPRHnvs-KlqR3MAuo1-1" vertex="1">
                    <mxGeometry x="1696.6" y="690" width="70" height="70" as="geometry"/>
                </mxCell>
                <mxCell id="KvnPRHnvs-KlqR3MAuo1-115" value="" style="endArrow=none;html=1;rounded=0;startSize=1;endSize=1;strokeColor=#000000;strokeWidth=7;jumpStyle=arc;jumpSize=6;exitX=0;exitY=0;exitDx=0;exitDy=0;entryX=1;entryY=1;entryDx=0;entryDy=0;" parent="KvnPRHnvs-KlqR3MAuo1-1" source="KvnPRHnvs-KlqR3MAuo1-114" target="KvnPRHnvs-KlqR3MAuo1-114" edge="1">
                    <mxGeometry width="50" height="50" relative="1" as="geometry">
                        <mxPoint x="1766.6" y="710" as="sourcePoint"/>
                        <mxPoint x="1816.6" y="660" as="targetPoint"/>
                    </mxGeometry>
                </mxCell>
                <mxCell id="KvnPRHnvs-KlqR3MAuo1-116" value="" style="endArrow=none;html=1;rounded=0;startSize=1;endSize=1;strokeColor=#000000;strokeWidth=7;jumpStyle=none;jumpSize=6;exitX=0;exitY=1;exitDx=0;exitDy=0;entryX=1;entryY=0;entryDx=0;entryDy=0;" parent="KvnPRHnvs-KlqR3MAuo1-1" source="KvnPRHnvs-KlqR3MAuo1-114" target="KvnPRHnvs-KlqR3MAuo1-114" edge="1">
                    <mxGeometry width="50" height="50" relative="1" as="geometry">
                        <mxPoint x="1716.8512626584743" y="710.2512626584743" as="sourcePoint"/>
                        <mxPoint x="1766.3487373415255" y="759.7487373415254" as="targetPoint"/>
                    </mxGeometry>
                </mxCell>
                <mxCell id="KvnPRHnvs-KlqR3MAuo1-117" value="" style="ellipse;whiteSpace=wrap;html=1;aspect=fixed;fillColor=#67AB9F;strokeWidth=3;strokeColor=#000000;" parent="KvnPRHnvs-KlqR3MAuo1-1" vertex="1">
                    <mxGeometry x="1696.6" y="810" width="70" height="70" as="geometry"/>
                </mxCell>
                <mxCell id="KvnPRHnvs-KlqR3MAuo1-118" value="" style="endArrow=none;html=1;rounded=0;startSize=1;endSize=1;strokeColor=#000000;strokeWidth=7;jumpStyle=arc;jumpSize=6;exitX=0;exitY=0;exitDx=0;exitDy=0;entryX=1;entryY=1;entryDx=0;entryDy=0;" parent="KvnPRHnvs-KlqR3MAuo1-1" source="KvnPRHnvs-KlqR3MAuo1-117" target="KvnPRHnvs-KlqR3MAuo1-117" edge="1">
                    <mxGeometry width="50" height="50" relative="1" as="geometry">
                        <mxPoint x="1766.6" y="830" as="sourcePoint"/>
                        <mxPoint x="1816.6" y="780" as="targetPoint"/>
                    </mxGeometry>
                </mxCell>
                <mxCell id="KvnPRHnvs-KlqR3MAuo1-119" value="" style="endArrow=none;html=1;rounded=0;startSize=1;endSize=1;strokeColor=#000000;strokeWidth=7;jumpStyle=none;jumpSize=6;exitX=0;exitY=1;exitDx=0;exitDy=0;entryX=1;entryY=0;entryDx=0;entryDy=0;" parent="KvnPRHnvs-KlqR3MAuo1-1" source="KvnPRHnvs-KlqR3MAuo1-117" target="KvnPRHnvs-KlqR3MAuo1-117" edge="1">
                    <mxGeometry width="50" height="50" relative="1" as="geometry">
                        <mxPoint x="1716.8512626584743" y="830.2512626584743" as="sourcePoint"/>
                        <mxPoint x="1766.3487373415255" y="879.7487373415254" as="targetPoint"/>
                    </mxGeometry>
                </mxCell>
                <mxCell id="KvnPRHnvs-KlqR3MAuo1-120" value="" style="ellipse;whiteSpace=wrap;html=1;aspect=fixed;fillColor=#67AB9F;strokeWidth=3;strokeColor=#000000;" parent="KvnPRHnvs-KlqR3MAuo1-1" vertex="1">
                    <mxGeometry x="1696.6" y="940" width="70" height="70" as="geometry"/>
                </mxCell>
                <mxCell id="KvnPRHnvs-KlqR3MAuo1-121" value="" style="endArrow=none;html=1;rounded=0;startSize=1;endSize=1;strokeColor=#000000;strokeWidth=7;jumpStyle=arc;jumpSize=6;exitX=0;exitY=0;exitDx=0;exitDy=0;entryX=1;entryY=1;entryDx=0;entryDy=0;" parent="KvnPRHnvs-KlqR3MAuo1-1" source="KvnPRHnvs-KlqR3MAuo1-120" target="KvnPRHnvs-KlqR3MAuo1-120" edge="1">
                    <mxGeometry width="50" height="50" relative="1" as="geometry">
                        <mxPoint x="1766.6" y="960" as="sourcePoint"/>
                        <mxPoint x="1816.6" y="910" as="targetPoint"/>
                    </mxGeometry>
                </mxCell>
                <mxCell id="KvnPRHnvs-KlqR3MAuo1-122" value="" style="endArrow=none;html=1;rounded=0;startSize=1;endSize=1;strokeColor=#000000;strokeWidth=7;jumpStyle=none;jumpSize=6;exitX=0;exitY=1;exitDx=0;exitDy=0;entryX=1;entryY=0;entryDx=0;entryDy=0;" parent="KvnPRHnvs-KlqR3MAuo1-1" source="KvnPRHnvs-KlqR3MAuo1-120" target="KvnPRHnvs-KlqR3MAuo1-120" edge="1">
                    <mxGeometry width="50" height="50" relative="1" as="geometry">
                        <mxPoint x="1716.8512626584743" y="960.2512626584743" as="sourcePoint"/>
                        <mxPoint x="1766.3487373415255" y="1009.7487373415254" as="targetPoint"/>
                    </mxGeometry>
                </mxCell>
                <mxCell id="KvnPRHnvs-KlqR3MAuo1-123" value="" style="ellipse;whiteSpace=wrap;html=1;aspect=fixed;fillColor=#67AB9F;strokeWidth=3;strokeColor=#000000;" parent="KvnPRHnvs-KlqR3MAuo1-1" vertex="1">
                    <mxGeometry x="1696.6" y="1060" width="70" height="70" as="geometry"/>
                </mxCell>
                <mxCell id="KvnPRHnvs-KlqR3MAuo1-124" value="" style="endArrow=none;html=1;rounded=0;startSize=1;endSize=1;strokeColor=#000000;strokeWidth=7;jumpStyle=arc;jumpSize=6;exitX=0;exitY=0;exitDx=0;exitDy=0;entryX=1;entryY=1;entryDx=0;entryDy=0;" parent="KvnPRHnvs-KlqR3MAuo1-1" source="KvnPRHnvs-KlqR3MAuo1-123" target="KvnPRHnvs-KlqR3MAuo1-123" edge="1">
                    <mxGeometry width="50" height="50" relative="1" as="geometry">
                        <mxPoint x="1766.6" y="1080" as="sourcePoint"/>
                        <mxPoint x="1816.6" y="1030" as="targetPoint"/>
                    </mxGeometry>
                </mxCell>
                <mxCell id="KvnPRHnvs-KlqR3MAuo1-125" value="" style="endArrow=none;html=1;rounded=0;startSize=1;endSize=1;strokeColor=#000000;strokeWidth=7;jumpStyle=none;jumpSize=6;exitX=0;exitY=1;exitDx=0;exitDy=0;entryX=1;entryY=0;entryDx=0;entryDy=0;" parent="KvnPRHnvs-KlqR3MAuo1-1" source="KvnPRHnvs-KlqR3MAuo1-123" target="KvnPRHnvs-KlqR3MAuo1-123" edge="1">
                    <mxGeometry width="50" height="50" relative="1" as="geometry">
                        <mxPoint x="1716.8512626584743" y="1080.2512626584744" as="sourcePoint"/>
                        <mxPoint x="1766.3487373415255" y="1129.7487373415254" as="targetPoint"/>
                    </mxGeometry>
                </mxCell>
                <mxCell id="KvnPRHnvs-KlqR3MAuo1-126" value="L3: IFmap Channel Memory" style="text;html=1;strokeColor=none;fillColor=none;align=left;verticalAlign=middle;whiteSpace=wrap;rounded=0;glass=0;fontSize=45;" parent="KvnPRHnvs-KlqR3MAuo1-1" vertex="1">
                    <mxGeometry x="325" y="70" width="220" height="190" as="geometry"/>
                </mxCell>
                <mxCell id="KvnPRHnvs-KlqR3MAuo1-127" value="" style="rounded=1;whiteSpace=wrap;html=1;fillColor=#e1d5e7;opacity=40;strokeColor=#9673a6;glass=0;strokeWidth=3;rotation=90;" parent="KvnPRHnvs-KlqR3MAuo1-1" vertex="1">
                    <mxGeometry x="1805" y="750" width="1150" height="275" as="geometry"/>
                </mxCell>
                <mxCell id="KvnPRHnvs-KlqR3MAuo1-128" style="edgeStyle=orthogonalEdgeStyle;rounded=0;jumpStyle=none;jumpSize=6;orthogonalLoop=1;jettySize=auto;html=1;fontSize=50;fontColor=#000000;startArrow=classic;startFill=1;endArrow=classic;endFill=1;startSize=1;endSize=1;strokeColor=#000000;strokeWidth=7;" parent="KvnPRHnvs-KlqR3MAuo1-1" source="KvnPRHnvs-KlqR3MAuo1-129" edge="1">
                    <mxGeometry relative="1" as="geometry">
                        <mxPoint x="1795" y="490" as="targetPoint"/>
                    </mxGeometry>
                </mxCell>
                <mxCell id="KvnPRHnvs-KlqR3MAuo1-129" value="F0 - F3" style="whiteSpace=wrap;html=1;aspect=fixed;fillColor=#e1d5e7;strokeColor=#9673a6;strokeWidth=3;rotation=90;fontSize=17;horizontal=0;fontStyle=1" parent="KvnPRHnvs-KlqR3MAuo1-1" vertex="1">
                    <mxGeometry x="2325" y="450" width="80" height="80" as="geometry"/>
                </mxCell>
                <mxCell id="KvnPRHnvs-KlqR3MAuo1-130" style="edgeStyle=orthogonalEdgeStyle;rounded=0;jumpStyle=none;jumpSize=6;orthogonalLoop=1;jettySize=auto;html=1;fontSize=50;fontColor=#000000;startArrow=classic;startFill=1;endArrow=classic;endFill=1;startSize=1;endSize=1;strokeColor=#000000;strokeWidth=7;" parent="KvnPRHnvs-KlqR3MAuo1-1" source="KvnPRHnvs-KlqR3MAuo1-131" edge="1">
                    <mxGeometry relative="1" as="geometry">
                        <mxPoint x="1795" y="620" as="targetPoint"/>
                    </mxGeometry>
                </mxCell>
                <mxCell id="KvnPRHnvs-KlqR3MAuo1-131" value="F4-F7" style="whiteSpace=wrap;html=1;aspect=fixed;fillColor=#e1d5e7;strokeColor=#9673a6;strokeWidth=3;rotation=90;fontSize=17;horizontal=0;fontStyle=1" parent="KvnPRHnvs-KlqR3MAuo1-1" vertex="1">
                    <mxGeometry x="2328" y="582" width="77" height="77" as="geometry"/>
                </mxCell>
                <mxCell id="KvnPRHnvs-KlqR3MAuo1-132" value="OFmap Memory" style="text;html=1;strokeColor=none;fillColor=none;align=left;verticalAlign=middle;whiteSpace=wrap;rounded=0;glass=0;fontSize=45;" parent="KvnPRHnvs-KlqR3MAuo1-1" vertex="1">
                    <mxGeometry x="2285" y="1210" width="220" height="190" as="geometry"/>
                </mxCell>
                <mxCell id="KvnPRHnvs-KlqR3MAuo1-133" value="Compute" style="text;html=1;strokeColor=none;fillColor=none;align=left;verticalAlign=middle;whiteSpace=wrap;rounded=0;glass=0;fontSize=41;" parent="KvnPRHnvs-KlqR3MAuo1-1" vertex="1">
                    <mxGeometry x="395" y="1290" width="199.99" height="130" as="geometry"/>
                </mxCell>
                <mxCell id="KvnPRHnvs-KlqR3MAuo1-134" style="edgeStyle=orthogonalEdgeStyle;rounded=0;jumpStyle=none;jumpSize=6;orthogonalLoop=1;jettySize=auto;html=1;fontSize=50;fontColor=#000000;startArrow=classic;startFill=1;endArrow=classic;endFill=1;startSize=1;endSize=1;strokeColor=#000000;strokeWidth=7;" parent="KvnPRHnvs-KlqR3MAuo1-1" source="KvnPRHnvs-KlqR3MAuo1-135" edge="1">
                    <mxGeometry relative="1" as="geometry">
                        <mxPoint x="1795" y="740" as="targetPoint"/>
                    </mxGeometry>
                </mxCell>
                <mxCell id="KvnPRHnvs-KlqR3MAuo1-135" value="F8-F11" style="whiteSpace=wrap;html=1;aspect=fixed;fillColor=#e1d5e7;strokeColor=#9673a6;strokeWidth=3;rotation=90;fontSize=17;horizontal=0;fontStyle=1" parent="KvnPRHnvs-KlqR3MAuo1-1" vertex="1">
                    <mxGeometry x="2325" y="700" width="80" height="80" as="geometry"/>
                </mxCell>
                <mxCell id="KvnPRHnvs-KlqR3MAuo1-136" style="edgeStyle=orthogonalEdgeStyle;rounded=0;jumpStyle=none;jumpSize=6;orthogonalLoop=1;jettySize=auto;html=1;fontSize=50;fontColor=#000000;startArrow=classic;startFill=1;endArrow=classic;endFill=1;startSize=1;endSize=1;strokeColor=#000000;strokeWidth=7;" parent="KvnPRHnvs-KlqR3MAuo1-1" source="KvnPRHnvs-KlqR3MAuo1-137" edge="1">
                    <mxGeometry relative="1" as="geometry">
                        <mxPoint x="1795" y="880" as="targetPoint"/>
                    </mxGeometry>
                </mxCell>
                <mxCell id="KvnPRHnvs-KlqR3MAuo1-137" value="F12-F15" style="whiteSpace=wrap;html=1;aspect=fixed;fillColor=#e1d5e7;strokeColor=#9673a6;strokeWidth=3;rotation=90;fontSize=17;horizontal=0;fontStyle=1" parent="KvnPRHnvs-KlqR3MAuo1-1" vertex="1">
                    <mxGeometry x="2328" y="842" width="77" height="77" as="geometry"/>
                </mxCell>
                <mxCell id="KvnPRHnvs-KlqR3MAuo1-138" style="edgeStyle=orthogonalEdgeStyle;rounded=0;jumpStyle=none;jumpSize=6;orthogonalLoop=1;jettySize=auto;html=1;fontSize=50;fontColor=#000000;startArrow=classic;startFill=1;endArrow=classic;endFill=1;startSize=1;endSize=1;strokeColor=#000000;strokeWidth=7;" parent="KvnPRHnvs-KlqR3MAuo1-1" source="KvnPRHnvs-KlqR3MAuo1-139" edge="1">
                    <mxGeometry relative="1" as="geometry">
                        <mxPoint x="1795" y="997" as="targetPoint"/>
                    </mxGeometry>
                </mxCell>
                <mxCell id="KvnPRHnvs-KlqR3MAuo1-139" value="F16-F19" style="whiteSpace=wrap;html=1;aspect=fixed;fillColor=#e1d5e7;strokeColor=#9673a6;strokeWidth=3;rotation=90;fontSize=17;horizontal=0;fontStyle=1" parent="KvnPRHnvs-KlqR3MAuo1-1" vertex="1">
                    <mxGeometry x="2328" y="959" width="77" height="77" as="geometry"/>
                </mxCell>
                <mxCell id="KvnPRHnvs-KlqR3MAuo1-140" style="edgeStyle=orthogonalEdgeStyle;rounded=0;jumpStyle=none;jumpSize=6;orthogonalLoop=1;jettySize=auto;html=1;fontSize=50;fontColor=#000000;startArrow=classic;startFill=1;endArrow=classic;endFill=1;startSize=1;endSize=1;strokeColor=#000000;strokeWidth=7;" parent="KvnPRHnvs-KlqR3MAuo1-1" source="KvnPRHnvs-KlqR3MAuo1-141" edge="1">
                    <mxGeometry relative="1" as="geometry">
                        <mxPoint x="1795" y="1113.5" as="targetPoint"/>
                    </mxGeometry>
                </mxCell>
                <mxCell id="KvnPRHnvs-KlqR3MAuo1-141" value="F20-F23" style="whiteSpace=wrap;html=1;aspect=fixed;fillColor=#e1d5e7;strokeColor=#9673a6;strokeWidth=3;rotation=90;fontSize=17;horizontal=0;fontStyle=1" parent="KvnPRHnvs-KlqR3MAuo1-1" vertex="1">
                    <mxGeometry x="2328" y="1075.5" width="77" height="77" as="geometry"/>
                </mxCell>
                <mxCell id="KvnPRHnvs-KlqR3MAuo1-142" value="Partial Sum Tree/Systolic Reduction" style="text;html=1;strokeColor=none;fillColor=none;align=left;verticalAlign=middle;whiteSpace=wrap;rounded=0;glass=0;fontSize=44;" parent="KvnPRHnvs-KlqR3MAuo1-1" vertex="1">
                    <mxGeometry x="25" y="950" width="300" height="130" as="geometry"/>
                </mxCell>
                <mxCell id="KvnPRHnvs-KlqR3MAuo1-143" value="" style="shape=curlyBracket;whiteSpace=wrap;html=1;rounded=1;glass=0;fontSize=50;fontColor=#000000;strokeColor=#000000;strokeWidth=4;fillColor=#0000FF;" parent="KvnPRHnvs-KlqR3MAuo1-1" vertex="1">
                    <mxGeometry x="545" y="450" width="20" height="690" as="geometry"/>
                </mxCell>
                <mxCell id="KvnPRHnvs-KlqR3MAuo1-144" value="Filter Concurrency" style="text;html=1;strokeColor=none;fillColor=none;align=center;verticalAlign=middle;whiteSpace=wrap;rounded=0;glass=0;fontSize=50;fontColor=#000000;horizontal=0;" parent="KvnPRHnvs-KlqR3MAuo1-1" vertex="1">
                    <mxGeometry x="445" y="777.5" width="60" height="30" as="geometry"/>
                </mxCell>
                <mxCell id="KvnPRHnvs-KlqR3MAuo1-145" value="" style="shape=curlyBracket;whiteSpace=wrap;html=1;rounded=1;glass=0;fontSize=50;fontColor=#000000;strokeColor=#000000;strokeWidth=4;fillColor=#0000FF;rotation=-90;" parent="KvnPRHnvs-KlqR3MAuo1-1" vertex="1">
                    <mxGeometry x="1199" y="675" width="20" height="1140" as="geometry"/>
                </mxCell>
                <mxCell id="KvnPRHnvs-KlqR3MAuo1-146" value="Channel Concurrency" style="text;html=1;strokeColor=none;fillColor=none;align=center;verticalAlign=middle;whiteSpace=wrap;rounded=0;glass=0;fontSize=50;fontColor=#000000;horizontal=0;rotation=90;" parent="KvnPRHnvs-KlqR3MAuo1-1" vertex="1">
                    <mxGeometry x="1180" y="1310" width="60" height="30" as="geometry"/>
                </mxCell>
                <mxCell id="KvnPRHnvs-KlqR3MAuo1-147" value="" style="endArrow=classic;html=1;rounded=0;fontSize=30;fontColor=#990000;strokeWidth=5;endFill=1;" parent="KvnPRHnvs-KlqR3MAuo1-1" edge="1">
                    <mxGeometry width="50" height="50" relative="1" as="geometry">
                        <mxPoint x="444.99" y="370" as="sourcePoint"/>
                        <mxPoint x="594.99" y="370" as="targetPoint"/>
                    </mxGeometry>
                </mxCell>
                <mxCell id="KvnPRHnvs-KlqR3MAuo1-148" value="" style="endArrow=classic;html=1;rounded=0;fontSize=30;fontColor=#990000;strokeWidth=5;endFill=1;" parent="KvnPRHnvs-KlqR3MAuo1-1" edge="1">
                    <mxGeometry width="50" height="50" relative="1" as="geometry">
                        <mxPoint x="445" y="370" as="sourcePoint"/>
                        <mxPoint x="445" y="430" as="targetPoint"/>
                    </mxGeometry>
                </mxCell>
                <mxCell id="KvnPRHnvs-KlqR3MAuo1-149" value="Horizontal Axis" style="text;html=1;strokeColor=none;fillColor=none;align=center;verticalAlign=middle;whiteSpace=wrap;rounded=0;fontSize=30;fontColor=#000000;" parent="KvnPRHnvs-KlqR3MAuo1-1" vertex="1">
                    <mxGeometry x="425" y="310" width="180" height="40" as="geometry"/>
                </mxCell>
                <mxCell id="KvnPRHnvs-KlqR3MAuo1-150" value="Vertical Axis" style="text;html=1;strokeColor=none;fillColor=none;align=center;verticalAlign=middle;whiteSpace=wrap;rounded=0;fontSize=30;fontColor=#000000;" parent="KvnPRHnvs-KlqR3MAuo1-1" vertex="1">
                    <mxGeometry x="305" y="370" width="150" height="40" as="geometry"/>
                </mxCell>
                <mxCell id="2" value="W" style="whiteSpace=wrap;html=1;aspect=fixed;fillColor=#e1d5e7;strokeColor=#000000;strokeWidth=3;fontSize=33;fontStyle=1" parent="KvnPRHnvs-KlqR3MAuo1-1" vertex="1">
                    <mxGeometry x="782" y="510" width="40" height="40" as="geometry"/>
                </mxCell>
                <mxCell id="3" value="W" style="whiteSpace=wrap;html=1;aspect=fixed;fillColor=#e1d5e7;strokeColor=#000000;strokeWidth=3;fontSize=33;fontStyle=1" parent="KvnPRHnvs-KlqR3MAuo1-1" vertex="1">
                    <mxGeometry x="782" y="640" width="40" height="40" as="geometry"/>
                </mxCell>
                <mxCell id="4" value="W" style="whiteSpace=wrap;html=1;aspect=fixed;fillColor=#e1d5e7;strokeColor=#000000;strokeWidth=3;fontSize=33;fontStyle=1" parent="KvnPRHnvs-KlqR3MAuo1-1" vertex="1">
                    <mxGeometry x="782" y="760" width="40" height="40" as="geometry"/>
                </mxCell>
                <mxCell id="5" value="W" style="whiteSpace=wrap;html=1;aspect=fixed;fillColor=#e1d5e7;strokeColor=#000000;strokeWidth=3;fontSize=33;fontStyle=1" parent="KvnPRHnvs-KlqR3MAuo1-1" vertex="1">
                    <mxGeometry x="782" y="880" width="40" height="40" as="geometry"/>
                </mxCell>
                <mxCell id="6" value="W" style="whiteSpace=wrap;html=1;aspect=fixed;fillColor=#e1d5e7;strokeColor=#000000;strokeWidth=3;fontSize=33;fontStyle=1" parent="KvnPRHnvs-KlqR3MAuo1-1" vertex="1">
                    <mxGeometry x="782" y="1010" width="40" height="40" as="geometry"/>
                </mxCell>
                <mxCell id="8" value="W" style="whiteSpace=wrap;html=1;aspect=fixed;fillColor=#e1d5e7;strokeColor=#000000;strokeWidth=3;fontSize=33;fontStyle=1" parent="KvnPRHnvs-KlqR3MAuo1-1" vertex="1">
                    <mxGeometry x="974.5999999999999" y="510" width="40" height="40" as="geometry"/>
                </mxCell>
                <mxCell id="9" value="W" style="whiteSpace=wrap;html=1;aspect=fixed;fillColor=#e1d5e7;strokeColor=#000000;strokeWidth=3;fontSize=33;fontStyle=1" parent="KvnPRHnvs-KlqR3MAuo1-1" vertex="1">
                    <mxGeometry x="974.5999999999999" y="640" width="40" height="40" as="geometry"/>
                </mxCell>
                <mxCell id="10" value="W" style="whiteSpace=wrap;html=1;aspect=fixed;fillColor=#e1d5e7;strokeColor=#000000;strokeWidth=3;fontSize=33;fontStyle=1" parent="KvnPRHnvs-KlqR3MAuo1-1" vertex="1">
                    <mxGeometry x="974.5999999999999" y="760" width="40" height="40" as="geometry"/>
                </mxCell>
                <mxCell id="11" value="W" style="whiteSpace=wrap;html=1;aspect=fixed;fillColor=#e1d5e7;strokeColor=#000000;strokeWidth=3;fontSize=33;fontStyle=1" parent="KvnPRHnvs-KlqR3MAuo1-1" vertex="1">
                    <mxGeometry x="974.5999999999999" y="880" width="40" height="40" as="geometry"/>
                </mxCell>
                <mxCell id="12" value="W" style="whiteSpace=wrap;html=1;aspect=fixed;fillColor=#e1d5e7;strokeColor=#000000;strokeWidth=3;fontSize=33;fontStyle=1" parent="KvnPRHnvs-KlqR3MAuo1-1" vertex="1">
                    <mxGeometry x="974.5999999999999" y="1010" width="40" height="40" as="geometry"/>
                </mxCell>
                <mxCell id="13" value="W" style="whiteSpace=wrap;html=1;aspect=fixed;fillColor=#e1d5e7;strokeColor=#000000;strokeWidth=3;fontSize=33;fontStyle=1" parent="KvnPRHnvs-KlqR3MAuo1-1" vertex="1">
                    <mxGeometry x="1165" y="510" width="40" height="40" as="geometry"/>
                </mxCell>
                <mxCell id="14" value="W" style="whiteSpace=wrap;html=1;aspect=fixed;fillColor=#e1d5e7;strokeColor=#000000;strokeWidth=3;fontSize=33;fontStyle=1" parent="KvnPRHnvs-KlqR3MAuo1-1" vertex="1">
                    <mxGeometry x="1165" y="640" width="40" height="40" as="geometry"/>
                </mxCell>
                <mxCell id="15" value="W" style="whiteSpace=wrap;html=1;aspect=fixed;fillColor=#e1d5e7;strokeColor=#000000;strokeWidth=3;fontSize=33;fontStyle=1" parent="KvnPRHnvs-KlqR3MAuo1-1" vertex="1">
                    <mxGeometry x="1165" y="760" width="40" height="40" as="geometry"/>
                </mxCell>
                <mxCell id="16" value="W" style="whiteSpace=wrap;html=1;aspect=fixed;fillColor=#e1d5e7;strokeColor=#000000;strokeWidth=3;fontSize=33;fontStyle=1" parent="KvnPRHnvs-KlqR3MAuo1-1" vertex="1">
                    <mxGeometry x="1165" y="880" width="40" height="40" as="geometry"/>
                </mxCell>
                <mxCell id="17" value="W" style="whiteSpace=wrap;html=1;aspect=fixed;fillColor=#e1d5e7;strokeColor=#000000;strokeWidth=3;fontSize=33;fontStyle=1" parent="KvnPRHnvs-KlqR3MAuo1-1" vertex="1">
                    <mxGeometry x="1165" y="1010" width="40" height="40" as="geometry"/>
                </mxCell>
                <mxCell id="18" value="W" style="whiteSpace=wrap;html=1;aspect=fixed;fillColor=#e1d5e7;strokeColor=#000000;strokeWidth=3;fontSize=33;fontStyle=1" parent="KvnPRHnvs-KlqR3MAuo1-1" vertex="1">
                    <mxGeometry x="1362" y="510" width="40" height="40" as="geometry"/>
                </mxCell>
                <mxCell id="19" value="W" style="whiteSpace=wrap;html=1;aspect=fixed;fillColor=#e1d5e7;strokeColor=#000000;strokeWidth=3;fontSize=33;fontStyle=1" parent="KvnPRHnvs-KlqR3MAuo1-1" vertex="1">
                    <mxGeometry x="1362" y="640" width="40" height="40" as="geometry"/>
                </mxCell>
                <mxCell id="20" value="W" style="whiteSpace=wrap;html=1;aspect=fixed;fillColor=#e1d5e7;strokeColor=#000000;strokeWidth=3;fontSize=33;fontStyle=1" parent="KvnPRHnvs-KlqR3MAuo1-1" vertex="1">
                    <mxGeometry x="1362" y="760" width="40" height="40" as="geometry"/>
                </mxCell>
                <mxCell id="21" value="W" style="whiteSpace=wrap;html=1;aspect=fixed;fillColor=#e1d5e7;strokeColor=#000000;strokeWidth=3;fontSize=33;fontStyle=1" parent="KvnPRHnvs-KlqR3MAuo1-1" vertex="1">
                    <mxGeometry x="1362" y="880" width="40" height="40" as="geometry"/>
                </mxCell>
                <mxCell id="22" value="W" style="whiteSpace=wrap;html=1;aspect=fixed;fillColor=#e1d5e7;strokeColor=#000000;strokeWidth=3;fontSize=33;fontStyle=1" parent="KvnPRHnvs-KlqR3MAuo1-1" vertex="1">
                    <mxGeometry x="1362" y="1010" width="40" height="40" as="geometry"/>
                </mxCell>
                <mxCell id="23" value="W" style="whiteSpace=wrap;html=1;aspect=fixed;fillColor=#e1d5e7;strokeColor=#000000;strokeWidth=3;fontSize=33;fontStyle=1" parent="KvnPRHnvs-KlqR3MAuo1-1" vertex="1">
                    <mxGeometry x="1554.6" y="510" width="40" height="40" as="geometry"/>
                </mxCell>
                <mxCell id="24" value="W" style="whiteSpace=wrap;html=1;aspect=fixed;fillColor=#e1d5e7;strokeColor=#000000;strokeWidth=3;fontSize=33;fontStyle=1" parent="KvnPRHnvs-KlqR3MAuo1-1" vertex="1">
                    <mxGeometry x="1554.6" y="640" width="40" height="40" as="geometry"/>
                </mxCell>
                <mxCell id="25" value="W" style="whiteSpace=wrap;html=1;aspect=fixed;fillColor=#e1d5e7;strokeColor=#000000;strokeWidth=3;fontSize=33;fontStyle=1" parent="KvnPRHnvs-KlqR3MAuo1-1" vertex="1">
                    <mxGeometry x="1554.6" y="760" width="40" height="40" as="geometry"/>
                </mxCell>
                <mxCell id="26" value="W" style="whiteSpace=wrap;html=1;aspect=fixed;fillColor=#e1d5e7;strokeColor=#000000;strokeWidth=3;fontSize=33;fontStyle=1" parent="KvnPRHnvs-KlqR3MAuo1-1" vertex="1">
                    <mxGeometry x="1554.6" y="880" width="40" height="40" as="geometry"/>
                </mxCell>
                <mxCell id="27" value="W" style="whiteSpace=wrap;html=1;aspect=fixed;fillColor=#e1d5e7;strokeColor=#000000;strokeWidth=3;fontSize=33;fontStyle=1" parent="KvnPRHnvs-KlqR3MAuo1-1" vertex="1">
                    <mxGeometry x="1554.6" y="1010" width="40" height="40" as="geometry"/>
                </mxCell>
                <mxCell id="33" value="W" style="whiteSpace=wrap;html=1;aspect=fixed;fillColor=#e1d5e7;strokeColor=#000000;strokeWidth=3;fontSize=33;fontStyle=1" parent="KvnPRHnvs-KlqR3MAuo1-1" vertex="1">
                    <mxGeometry x="1750" y="510" width="40" height="40" as="geometry"/>
                </mxCell>
                <mxCell id="34" value="W" style="whiteSpace=wrap;html=1;aspect=fixed;fillColor=#e1d5e7;strokeColor=#000000;strokeWidth=3;fontSize=33;fontStyle=1" parent="KvnPRHnvs-KlqR3MAuo1-1" vertex="1">
                    <mxGeometry x="1750" y="640" width="40" height="40" as="geometry"/>
                </mxCell>
                <mxCell id="35" value="W" style="whiteSpace=wrap;html=1;aspect=fixed;fillColor=#e1d5e7;strokeColor=#000000;strokeWidth=3;fontSize=33;fontStyle=1" parent="KvnPRHnvs-KlqR3MAuo1-1" vertex="1">
                    <mxGeometry x="1750" y="760" width="40" height="40" as="geometry"/>
                </mxCell>
                <mxCell id="36" value="W" style="whiteSpace=wrap;html=1;aspect=fixed;fillColor=#e1d5e7;strokeColor=#000000;strokeWidth=3;fontSize=33;fontStyle=1" parent="KvnPRHnvs-KlqR3MAuo1-1" vertex="1">
                    <mxGeometry x="1750" y="880" width="40" height="40" as="geometry"/>
                </mxCell>
                <mxCell id="37" value="W" style="whiteSpace=wrap;html=1;aspect=fixed;fillColor=#e1d5e7;strokeColor=#000000;strokeWidth=3;fontSize=33;fontStyle=1" parent="KvnPRHnvs-KlqR3MAuo1-1" vertex="1">
                    <mxGeometry x="1750" y="1010" width="40" height="40" as="geometry"/>
                </mxCell>
            </root>
        </mxGraphModel>
    </diagram>
</mxfile>